<?xml version="1.0" standalone="no"?><!DOCTYPE svg PUBLIC "-//W3C//DTD SVG 1.1//EN" "http://www.w3.org/Graphics/SVG/1.1/DTD/svg11.dtd" ><svg xmlns="http://www.w3.org/2000/svg"><metadata></metadata><defs><font id="SimHei" horiz-adv-x="256"><font-face font-family="SimHei" font-weight="400" font-stretch="normal" units-per-em="256" panose-1="2 1 6 9 6 1 1 1 1 1" ascent="220" descent="-36" x-height="1" bbox="1 -39 248 214" underline-thickness="12" underline-position="-22" unicode-range="U+002e-ff1a" /><missing-glyph horiz-adv-x="256" d="M224 -13 l-196 0 l0 206 l196 0 l0 -206 ZM216 186 l-181 0 l0 -192 l181 0 l0 192 Z" /><glyph glyph-name="" unicode="." d="M43 5 l-23 0 l0 22 l23 0 l0 -22 Z" /><glyph glyph-name="" unicode="0" d="M9 101.5 q1 26.5 7.5 42 q6.5 15.5 18.5 25.5 q12 10 29.5 10 q17.5 0 30.5 -14.5 q13 -14.5 17 -36.5 q4 -22 2.5 -50.5 q-1.5 -28.5 -10 -46.5 q-8.5 -18 -25.5 -25 q-17 -7 -34 1.5 q-17 8.5 -24 22.5 q-7 14 -10 29.5 q-3 15.5 -2 42 ZM30 107.5 q-3 -27.5 2 -49 q5 -21.5 16.5 -30.5 q11.5 -9 23.5 -3.5 q12 5.5 17.5 22 q5.5 16.5 5.5 36 q0 19.5 -1.5 35.5 q-1.5 16 -9 29 q-7.5 13 -20 13.5 q-12.5 0.5 -22 -12.5 q-9.5 -13 -12.5 -40.5 Z" /><glyph glyph-name="" unicode="1" d="M56 144 q-13 -13 -33 -25 l0 19 q25 17 41 40 l12 0 l0 -172 l-20 0 l0 138 Z" /><glyph glyph-name="" unicode="2" d="M12 10 q1 15 14 27 q13 12 33 37.5 q20 25.5 26 39.5 q6 14 4.5 24 q-1.5 10 -9.5 16.5 q-8 6.5 -18.5 5.5 q-10.5 -1 -20 -8 q-9.5 -7 -14.5 -21 l-19 3 q8 23 20.5 33.5 q12.5 10.5 29.5 11.5 q10 1 18 -0.5 q8 -1.5 16.5 -7 q8.5 -5.5 14 -16.5 q5.5 -11 4 -26.5 q-1.5 -15.5 -15.5 -37 q-14 -21.5 -54 -67.5 l72 0 l0 -18 l-101 0 l0 4 Z" /><glyph glyph-name="" unicode="3" d="M10 49 l18 3 q4 -13 13 -21.5 q9 -8.5 22.5 -8 q13.5 0.5 21.5 11 q8 10.5 7 24 q-1 13.5 -10.5 21 q-9.5 7.5 -30.5 10.5 l0 13 q21 2 30.5 11 q9.5 9 8.5 23.5 q-1 14.5 -13 21 q-12 6.5 -25.5 1.5 q-13.5 -5 -21.5 -28 l-18 3 q6 18 16.5 30 q10.5 12 28.5 14 q18 2 31.5 -4.5 q13.5 -6.5 19 -20 q5.5 -13.5 1.5 -29.5 q-4 -16 -23 -28 q14 -6 21.5 -18 q7.5 -12 5 -31.5 q-2.5 -19.5 -17.5 -31.5 q-15 -12 -34 -11.5 q-19 0.5 -33 12 q-14 11.5 -18 33.5 Z" /><glyph glyph-name="" unicode="4" d="M80 44 l-77 0 l0 17 l81 117 l15 0 l0 -117 l24 0 l0 -17 l-24 0 l0 -38 l-19 0 l0 38 ZM80 61 l0 79 l-56 -79 l56 0 Z" /><glyph glyph-name="" unicode="6" d="M10 64.5 q1 14.5 5.5 24.5 q4.5 10 13.5 25 l41 64 l23 0 l-42 -66 q27 7 43 -2 q16 -9 21.5 -20.5 q5.5 -11.5 6 -25 q0.5 -13.5 -4 -26.5 q-4.5 -13 -16 -23.5 q-11.5 -10.5 -32 -11.5 q-20.5 -1 -35 7.5 q-14.5 8.5 -20 24 q-5.5 15.5 -4.5 30 ZM41 31.5 q9 -9.5 24 -10.5 q15 -1 25 10 q10 11 10 32 q0 21 -12.5 29 q-12.5 8 -28 6 q-15.5 -2 -22.5 -15 q-7 -13 -6 -27.5 q1 -14.5 10 -24 Z" /><glyph glyph-name="" unicode="7" d="M34 6 q18 76 63 151 l-86 0 l0 18 l107 0 l0 -17 q-47 -76 -62 -152 l-22 0 Z" /><glyph glyph-name="" unicode="8" d="M7 55 q0 12 6 23.5 q6 11.5 20 18.5 q-12 7 -16 15.5 q-4 8.5 -4.5 19.5 q-0.5 11 3 19 q3.5 8 10.5 15 q7 7 15.5 9.5 q8.5 2.5 18.5 2.5 q10 0 18 -2 q8 -2 17 -8.5 q9 -6.5 13 -18.5 q4 -12 -0.5 -28 q-4.5 -16 -23.5 -25 q17 -5 24 -15.5 q7 -10.5 7 -25.5 q0 -15 -4.5 -24 q-4.5 -9 -10 -15 q-5.5 -6 -15 -9.5 q-9.5 -3.5 -24 -3.5 q-14.5 0 -25 3.5 q-10.5 3.5 -17.5 10.5 q-7 7 -9.5 16.5 q-2.5 9.5 -2.5 21.5 ZM27.5 56 q-0.5 -12 4 -21 q4.5 -9 16.5 -11.5 q12 -2.5 25 0.5 q13 3 18 14 q5 11 3.5 22 q-1.5 11 -12.5 18.5 q-11 7.5 -24 6.5 q-13 -1 -21.5 -9 q-8.5 -8 -9 -20 ZM31 134 q0 -10 7 -19 q7 -9 22 -9 q15 0 22.5 9 q7.5 9 7 21.5 q-0.5 12.5 -9 18.5 q-8.5 6 -23 5 q-14.5 -1 -20.5 -8.5 q-6 -7.5 -6 -17.5 Z" /><glyph glyph-name="" unicode="a" d="M123 5 l-24 0 l-14 53 l-44 0 l-14 -53 l-24 0 l50 173 l20 0 l50 -173 ZM80 77 l-16 61 l-2 0 l-16 -61 l34 0 Z" /><glyph glyph-name="" unicode="c" d="M119 73 q-1 -38 -16 -54 q-15 -16 -36 -16 q-24 0 -41 19.5 q-17 19.5 -17 62.5 q0 47 16.5 70 q16.5 23 42.5 23 q22 0 36.5 -16.5 q14.5 -16.5 13.5 -46.5 l-22 0 q0 22 -7 33 q-7 11 -21 11 q-16 0 -25.5 -16.5 q-9.5 -16.5 -9.5 -55.5 q0 -36 9.5 -50.5 q9.5 -14.5 24.5 -14.5 q11 0 20 10.5 q9 10.5 9 40.5 l23 0 Z" /><glyph glyph-name="" unicode="u" d="M115 55 q0 -24 -12.5 -38 q-12.5 -14 -39.5 -14 q-27 0 -39.5 14 q-12.5 14 -12.5 38 l0 121 l23 0 l0 -121 q0 -17 8 -25 q8 -8 21 -8 q13 0 21 8 q8 8 8 25 l0 121 l23 0 l0 -121 Z" /><glyph glyph-name="" unicode="x" d="M120 5 l-24 0 l-34 70 l-34 -70 l-24 0 l47 90 l-42 81 l24 0 l29 -62 l29 62 l24 0 l-42 -81 l47 -90 Z" /><glyph glyph-name="" unicode="c" d="M114 50 q0 -21 -14.5 -34 q-14.5 -13 -36.5 -13 q-22 0 -38 15.5 q-16 15.5 -16 42.5 q0 27 16 42.5 q16 15.5 38 15.5 q22 0 35 -11.5 q13 -11.5 13 -27.5 l-22 0 q-1 12 -8.5 16.5 q-7.5 4.5 -17.5 4.5 q-12 0 -22 -9.5 q-10 -9.5 -10 -30.5 q0 -21 10 -30.5 q10 -9.5 22 -9.5 q13 0 21 7 q8 7 8 22 l22 0 Z" /><glyph glyph-name="" unicode="d" d="M110 5 l-20 0 l0 15 q-6 -9 -14 -13 q-8 -4 -19 -4 q-20 0 -34 14.5 q-14 14.5 -14 43.5 q0 29 14 44 q14 15 34 15 q11 0 19 -4.5 q8 -4.5 14 -13.5 l0 74 l20 0 l0 -171 ZM90 61 q0 19 -8.5 30 q-8.5 11 -20.5 11 q-15 0 -22.5 -11 q-7.5 -11 -7.5 -30 q0 -19 7.5 -29.5 q7.5 -10.5 22.5 -10.5 q12 0 20.5 10.5 q8.5 10.5 8.5 29.5 Z" /><glyph glyph-name="" unicode="e" d="M114 43 q-2 -18 -16 -29 q-14 -11 -33 -11 q-24 0 -39.5 15.5 q-15.5 15.5 -15.5 42.5 q0 27 15.5 42.5 q15.5 15.5 39.5 15.5 q21 0 34.5 -13.5 q13.5 -13.5 13.5 -44.5 l-81 0 q0 -22 9.5 -31 q9.5 -9 23.5 -9 q11 0 18 5.5 q7 5.5 9 16.5 l22 0 ZM90 77 q-2 14 -9 19.5 q-7 5.5 -18 5.5 q-10 0 -18 -5.5 q-8 -5.5 -12 -19.5 l57 0 Z" /><glyph glyph-name="" unicode="i" d="M72 149 l-20 0 l0 26 l20 0 l0 -26 ZM72 5 l-20 0 l0 112 l20 0 l0 -112 Z" /><glyph glyph-name="" unicode="m" d="M122 5 l-20 0 l0 81 q0 6 -2 10 q-2 4 -8 4 q-7 0 -13 -7.5 q-6 -7.5 -6 -19.5 l0 -68 l-20 0 l0 81 q0 6 -2 10 q-2 4 -8 4 q-7 0 -13 -7.5 q-6 -7.5 -6 -19.5 l0 -68 l-20 0 l0 112 l20 0 l0 -15 q5 8 12 12.5 q7 4.5 15 4.5 q8 0 13.5 -4.5 q5.5 -4.5 7.5 -12.5 q5 8 11.5 12.5 q6.5 4.5 14.5 4.5 q12 0 18 -6.5 q6 -6.5 6 -18.5 l0 -89 Z" /><glyph glyph-name="" unicode="n" d="M112 5 l-20 0 l0 72 q0 12 -6 19 q-6 7 -16 7 q-13 0 -24.5 -13.5 q-11.5 -13.5 -11.5 -33.5 l0 -51 l-20 0 l0 112 l20 0 l0 -21 q8 11 17.5 17 q9.5 6 24.5 6 q18 0 27 -10 q9 -10 9 -25 l0 -79 Z" /><glyph glyph-name="" unicode="o" d="M117 61 q0 -26 -16 -42 q-16 -16 -38 -16 q-22 0 -38 16 q-16 16 -16 42 q0 26 16 42 q16 16 38 16 q22 0 38 -16 q16 -16 16 -42 ZM95 61 q0 20 -10 30 q-10 10 -22 10 q-12 0 -22 -10 q-10 -10 -10 -30 q0 -20 10 -30 q10 -10 22 -10 q12 0 22 10 q10 10 10 30 Z" /><glyph glyph-name="" unicode="r" d="M100 97 q-19 3 -32 -5.5 q-13 -8.5 -22 -29.5 l0 -57 l-20 0 l0 112 l20 0 l0 -29 q9 16 22.5 23.5 q13.5 7.5 31.5 7.5 l0 -22 Z" /><glyph glyph-name="" unicode="t" d="M110 8 q-5 -2 -11.5 -3.5 q-6.5 -1.5 -17.5 -1.5 q-18 0 -29 10 q-11 10 -11 28 l0 60 l-34 0 l0 16 l34 0 l0 39 l20 0 l0 -39 l41 0 l0 -16 l-41 0 l0 -61 q0 -8 4 -13.5 q4 -5.5 15 -5.5 q11 0 18 2 q7 2 12 5 l0 -20 Z" /><glyph glyph-name="" unicode="w" d="M123 117 l-25 -114 l-19 0 l-16 87 l-2 0 l-16 -87 l-19 0 l-25 114 l21 0 l13 -75 l2 0 l14 75 l22 0 l14 -75 l2 0 l13 75 l21 0 Z" /><glyph glyph-name="" unicode="&#x3001;" d="M69 -11 q-16 39 -32 69 l16 8 q20 -28 40 -65 l-24 -12 Z" /><glyph glyph-name="" unicode="&#x3002;" d="M91 39 q4 -11 1 -21.5 q-3 -10.5 -11 -16 q-8 -5.5 -19 -5.5 q-11 0 -20 9 q-9 9 -9 19.5 q0 10.5 5 18.5 q5 8 15.5 12 q10.5 4 22 -0.5 q11.5 -4.5 15.5 -15.5 ZM73 11 q9 6 8.5 16.5 q-0.5 10.5 -10 15.5 q-9.5 5 -18 -1 q-8.5 -6 -8.5 -16 q0 -10 9.5 -15.5 q9.5 -5.5 18.5 0.5 Z" /><glyph glyph-name="" unicode="&#x300a;" d="M185 214 l13 -5 l-55 -117 l55 -114 l-13 -5 l-58 120 l58 121 ZM225 214 l13 -5 l-56 -117 l56 -114 l-13 -5 l-59 120 l59 121 Z" /><glyph glyph-name="" unicode="&#x300b;" d="M30 214 l56 -122 l-56 -119 l-13 5 l55 115 l-55 116 l13 5 ZM69 214 l58 -122 l-58 -119 l-13 5 l57 115 l-57 116 l13 5 Z" /><glyph glyph-name="" unicode="&#xff0c;" d="M35 38 l36 0 l0 -40 q-3 -25 -25 -37 l-10 9 q18 10 18 30 l-19 0 l0 38 Z" /><glyph glyph-name="" unicode="&#xff1a;" d="M48 97 l33 0 l0 -33 l-33 0 l0 33 ZM48 33 l33 0 l0 -33 l-33 0 l0 33 Z" /><glyph glyph-name="" unicode="&#x4e0a;" d="M130 203 q-1 -17 -1 -32 l0 -42 l57 0 q20 0 38 1 l0 -22 q-20 1 -40 1 l-55 0 l0 -101 l79 0 q15 0 35 1 l0 -21 q-19 1 -35 1 l-158 0 q-16 0 -36 -1 l0 21 q19 -1 36 -1 l58 0 l0 162 q0 15 -1 33 l23 0 Z" /><glyph glyph-name="" unicode="&#x4e1a;" d="M113 201 q-2 -28 -2 -48 l0 -147 l33 0 l0 159 q0 16 -2 36 l25 0 q-2 -16 -2 -34 l0 -161 l39 0 q16 0 39 2 l0 -22 q-23 2 -38 2 l-152 0 q-14 0 -40 -2 l0 22 q26 -2 39 -2 l37 0 l0 148 q0 21 -3 47 l27 0 ZM41 151 q12 -31 33 -91 q-11 -2 -23 -8 q-18 58 -32 90 q10 4 22 9 ZM234 145 q-13 -34 -36 -95 q-10 6 -21 9 q21 39 32 94 q11 -4 25 -8 Z" /><glyph glyph-name="" unicode="&#x4e2d;" d="M139 208 q-1 -28 -1 -53 l87 0 q-1 -20 -1 -55 q0 -34 1 -51 l-22 0 l0 15 l-65 0 l0 -43 q0 -12 1 -45 l-24 0 q2 18 2 42 l0 46 l-65 0 l0 -15 l-22 0 q1 15 1 51 q0 37 -1 55 l87 0 q0 27 -1 53 l23 0 ZM203 80 l0 59 l-65 0 l0 -59 l65 0 ZM117 80 l0 59 l-65 0 l0 -59 l65 0 Z" /><glyph glyph-name="" unicode="&#x4e3a;" d="M141 205 q-4 -9 -5.5 -26 q-1.5 -17 -4.5 -45 l103 0 q-2 -17 -3 -29 l-11 -100 q-3 -18 -19 -23 q-16 -5 -40 -6 q-3 14 -10 24 q30 -2 39 1 q9 3 11 18 l10 98 l-82 0 q-9 -46 -33.5 -80 q-24.5 -34 -61.5 -61 q-10 13 -18 18 q32 16 57.5 47.5 q25.5 31.5 34.5 75.5 l-33 0 q-17 0 -44 -1 l0 19 q27 -1 37 -1 l43 0 q4 34 4 75 q16 -3 26 -4 ZM140 87 q25 -16 50 -33 q-6 -6 -14 -20 q-22 20 -46 35 q7 11 10 18 ZM45 182 q9 7 15 14 q28 -27 38 -39 q-8 -7 -17 -15 q-11 16 -36 40 Z" /><glyph glyph-name="" unicode="&#x4e66;" d="M103 156 q0 34 -1 52 l23 0 q-2 -15 -2 -52 l76 0 q-2 -9 -7 -68 l38 0 q-5 -65 -8 -74.5 q-3 -9.5 -15.5 -13 q-12.5 -3.5 -28.5 -5.5 q-3 16 -9 23 q18 -1 26.5 1 q8.5 2 9.5 13 l3 37 l-85 0 l0 -53 q0 -20 1 -39 l-24 0 q3 18 3 38 l0 54 l-47 0 q-14 0 -38 -1 l0 21 q21 -1 40 -1 l45 0 l0 51 l-39 0 q-6 0 -27 -1 l0 19 q20 -1 34 -1 l32 0 ZM172 88 l4 51 l-53 0 l0 -51 l49 0 ZM185 208 q13 -11 24 -21.5 q11 -10.5 22 -22.5 q-12 -10 -16 -14 q-9 14 -45 45 q10 8 15 13 Z" /><glyph glyph-name="" unicode="&#x4eba;" d="M14 -6 q39 19 61 47 q22 28 30.5 57.5 q8.5 29.5 9.5 55 q1 25.5 -1 53.5 q11 -1 25 -2 q-3 -16 -3 -33 q0 -17 2 -39 q2 -22 28.5 -66.5 q26.5 -44.5 77.5 -66.5 q-12 -12 -16 -20 q-70 34 -100 123 q-20 -79 -97 -126 q-6 8 -17 17 Z" /><glyph glyph-name="" unicode="&#x4ef7;" d="M88 199 q-6 -10 -22 -48 l0 -133 q0 -27 1 -44 l-20 0 q0 17 1 44 l0 101 q-12 -22 -22 -35 q-5 7 -17 14 q21 23 36 54 q15 31 20 55 q13 -6 23 -8 ZM167 188 q27 -47 79 -70 q-9 -8 -15 -18 q-42 24 -73 72 q-26 -47 -68 -78 q-5 7 -14 15 q37 24 54 53 q17 29 20 44 q16 -8 23 -10 l-6 -8 ZM139 106 q-3 -23 -6 -62.5 q-3 -39.5 -40 -70.5 q-6 9 -16 15 q37 26 39.5 62.5 q2.5 36.5 1.5 57.5 q13 -2 21 -2 ZM203 108 q-1 -22 -1 -39 l0 -63 q0 -15 1 -32 l-21 0 q1 17 1 33 l0 68 q0 11 -1 33 l21 0 Z" /><glyph glyph-name="" unicode="&#x4f01;" d="M58 -12 q-6 0 -30 -1 l0 19 q27 -1 26 -1 l11 0 l0 64 q0 12 -2 31 l24 0 q-2 -19 -2 -31 l0 -64 l39 0 l0 97 q0 12 -1 31 l22 0 q-1 -18 -1 -50 l31 0 q16 0 35 1 l0 -19 q-18 1 -34 1 l-32 0 l0 -61 l62 0 q3 0 21 1 l0 -19 q-18 1 -22 1 l-147 0 ZM138 192 q33 -51 108 -72 q-10 -7 -15 -22 q-78 33 -104 81 q-34 -50 -104 -87 q-7 13 -15 20 q51 20 78.5 49.5 q27.5 29.5 33.5 47.5 q6 -4 23 -10 l-5 -7 Z" /><glyph glyph-name="" unicode="&#x4f30;" d="M148 152 l0 23 q0 13 -2 28 l24 0 q-2 -15 -2 -27 l0 -24 l37 0 q19 0 35 1 l0 -19 q-14 1 -35 1 l-37 0 l0 -46 l52 0 q-1 -28 -1 -56 q0 -27 1 -51 l-20 0 l0 19 l-83 0 l0 -21 l-20 0 q1 27 1 54 q0 27 -1 55 l51 0 l0 46 l-30 0 q-21 0 -37 -1 l0 19 q16 -1 36 -1 l31 0 ZM88 196 q-9 -10 -23 -48 l0 -121 q0 -31 1 -48 l-22 0 q2 18 2 47 l0 91 q-14 -23 -26 -38 q-3 7 -12 18 q12 14 29.5 45 q17.5 31 25.5 64 q8 -4 25 -10 ZM200 18 l0 54 l-83 0 l0 -54 l83 0 Z" /><glyph glyph-name="" unicode="&#x4f53;" d="M146 154 q0 36 -1 51 l20 0 q-1 -14 -1 -51 l44 0 q20 0 29 1 l0 -18 q-9 1 -29 1 l-27 0 q16 -64 67 -90 q-11 -6 -17 -17 q-54 41 -67 106 l0 -96 q29 0 38 1 l0 -18 q-9 1 -38 1 q0 -22 1 -48 l-20 0 q1 27 1 48 q-18 0 -38 -1 l0 18 q20 -1 38 -1 l0 97 q-11 -66 -66 -112 q-6 9 -18 15 q52 34 66 97 l-21 0 q-16 0 -28 -1 l0 18 q12 -1 28 -1 l39 0 ZM80 196 q-7 -9 -19 -45 l0 -128 q0 -31 1 -45 l-20 0 q1 13 1 44 l0 94 q-5 -11 -20 -34 q-5 9 -14 15 q12 12 28 47.5 q16 35.5 20 60.5 q11 -5 23 -9 Z" /><glyph glyph-name="" unicode="&#x4f7f;" d="M148 175 q0 22 -1 35 q13 -2 23 -3 q-3 -10 -3 -32 l32 0 q22 0 40 1 l0 -18 q-19 1 -40 1 l-32 0 l0 -22 l61 0 q-1 -14 -1 -30 q0 -15 1 -31 l-62 0 q-2 -32 -11 -52 q28 -25 89 -26 q-7 -5 -11 -19 q-53 2 -90 30 q-23 -24 -56 -36 q-1 7 -14 15 q38 11 56 32 q-17 17 -36 40 q6 3 14 11 q16 -22 33 -35 q6 17 7 40 l-59 0 q1 16 1 32 q0 16 -1 29 l60 0 l0 22 l-33 0 q-21 0 -36 -1 l0 18 q14 -1 35 -1 l34 0 ZM77 199 q-5 -6 -16 -37 l0 -138 q0 -22 1 -47 l-20 0 q1 24 1 45 l0 106 q-14 -29 -19 -38 q-5 9 -15 15 q11 15 26.5 47.5 q15.5 32.5 18.5 55.5 l23 -9 ZM208 92 l0 30 l-41 0 l0 -30 l41 0 ZM148 92 l0 30 l-40 0 l0 -30 l40 0 Z" /><glyph glyph-name="" unicode="&#x4f9d;" d="M161 208 q3 -7 6 -18 q3 -11 6 -21 l39 0 q11 0 27 1 l0 -19 q-15 1 -26 1 l-51 0 q-7 -27 -20 -51 l0 -94 q17 14 26 24 q3 -10 8 -21 q-32 -24 -46 -37 q-5 8 -15 18 q7 5 8 19 l0 61 q-19 -24 -35 -40 q-7 8 -17 15 q55 44 70 106 l-29 0 q-14 0 -29 -1 l0 19 q15 -1 28 -1 l40 0 q-1 7 -10 32 q6 3 20 7 ZM87 199 q-8 -7 -20 -42 l0 -132 q0 -32 1 -48 l-21 0 q1 15 1 47 l0 96 q-10 -19 -25 -40 q-6 9 -14 15 q13 16 28.5 45.5 q15.5 29.5 28.5 68.5 q6 -4 21 -10 ZM237 107 q-4 -5 -17.5 -15.5 q-13.5 -10.5 -28.5 -24.5 q19 -48 52 -66 q-11 -11 -17 -18 q-33 27 -50 71 q-17 44 -21 67 q9 2 18 6 q5 -28 11 -42 q21 16 35 40 l18 -18 Z" /><glyph glyph-name="" unicode="&#x4fe1;" d="M226 63 q-1 -12 -1 -40 q0 -27 1 -41 l-19 0 l0 17 l-86 0 l0 -21 l-20 0 q1 15 1 42 q0 28 -1 43 l125 0 ZM85 199 q-6 -6 -19 -40 l0 -137 q0 -30 1 -47 l-22 0 q3 18 3 48 l0 101 q-12 -24 -23 -40 q-6 10 -15 16 q11 12 27 42.5 q16 30.5 24 64.5 q11 -4 24 -8 ZM207 15 l0 34 l-86 0 l0 -34 l86 0 ZM243 156 q-20 1 -79 1 q-59 0 -80 -1 l0 17 l159 0 l0 -17 ZM228 120 q-17 1 -62 1 q-45 0 -67 -1 l0 17 q19 -1 65 -1 q47 0 64 1 l0 -17 ZM228 85 q-14 1 -61 1 q-46 0 -68 -1 l0 17 q21 -1 68 -1 q48 0 61 1 l0 -17 ZM161 208 q3 -6 6 -13 q3 -7 6 -15 q-9 -3 -18 -5 q-7 21 -12 26 q10 4 18 7 Z" /><glyph glyph-name="" unicode="&#x516c;" d="M178 22 q-8 14 -22 32 q10 6 17 12 q15 -22 28 -43.5 q13 -21.5 20 -34.5 q-11 -6 -19 -11 q-6 12 -16 29 q-67 -9 -94.5 -13 q-27.5 -4 -39.5 -9 q-3 10 -11 22 q10 4 19 14 q9 10 26.5 42 q17.5 32 24.5 56 q15 -9 23 -11 q-11 -17 -29.5 -51 q-18.5 -34 -26.5 -44 q46 4 100 10 ZM161 208 q19 -51 40.5 -77 q21.5 -26 43.5 -38 q-14 -7 -19 -17 q-30 25 -51 58 q-21 33 -34 67 q11 2 20 7 ZM109 191 q-19 -40 -39 -70 q-20 -30 -41 -50 q-8 11 -17 16 q21 16 44 49 q23 33 33 64 q7 -5 20 -9 Z" /><glyph glyph-name="" unicode="&#x5171;" d="M81 148 q0 40 -1 52 l24 0 q-2 -12 -2 -52 l55 0 q0 41 -1 53 l24 0 q-2 -12 -2 -53 l20 0 q18 0 31 1 l0 -18 q-13 1 -31 1 l-20 0 l0 -58 l34 0 q18 0 30 1 l0 -18 q-11 1 -29 1 l-170 0 q-19 0 -30 -1 l0 18 q11 -1 30 -1 l38 0 l0 58 l-17 0 q-24 0 -36 -1 l0 18 q13 -1 37 -1 l16 0 ZM157 74 l0 58 l-55 0 l0 -58 l55 0 ZM115 29 q-14 -7 -36.5 -23.5 q-22.5 -16.5 -44.5 -26.5 q-7 10 -16 17 q21 9 39.5 20.5 q18.5 11.5 35.5 28.5 q11 -9 22 -16 ZM162 45 q12 -7 35 -21 q23 -14 40 -28 q-9 -7 -16 -16 q-17 13 -37.5 26.5 q-20.5 13.5 -36.5 21.5 q8 8 15 17 Z" /><glyph glyph-name="" unicode="&#x5177;" d="M200 196 q-1 -13 -1 -33 l0 -109 l15 0 q14 0 28 2 l0 -19 q-12 2 -27 2 l-166 0 q-21 0 -33 -2 l0 19 q12 -1 31 -2 l10 0 l0 107 q0 20 -1 35 l144 0 ZM179 54 l0 20 l-102 0 l0 -20 l102 0 ZM179 89 l0 20 l-102 0 l0 -20 l102 0 ZM179 160 l0 19 l-102 0 l0 -19 l102 0 ZM179 125 l0 19 l-102 0 l0 -19 l102 0 ZM109 18 q-11 -5 -29.5 -17.5 q-18.5 -12.5 -43.5 -24.5 q-6 10 -14 18 q40 16 70 42 q7 -11 17 -18 ZM192 19 q21 -10 39 -22 q-10 -8 -15 -17 q-19 14 -71 39 q9 8 14 17 l33 -17 Z" /><glyph glyph-name="" unicode="&#x5179;" d="M211 -9 q-64 -9 -74 -13 q-5 11 -11 25 q14 3 51 58 q-32 -1 -44 -6 q-5 12 -9 20 q13 11 24 28 q11 17 19 35 q11 -9 23 -13 q-12 -8 -41 -49 l37 0 q10 14 13 26 q9 -7 23 -15 q-8 -6 -24 -27 q-16 -21 -46 -59 q34 3 56 6 q-3 10 -7 25 q9 2 19 5 q5 -15 9 -29.5 q4 -14.5 6 -25.5 q-10 -2 -20 -5 l-4 14 ZM93 126 q-12 -6 -22.5 -20.5 q-10.5 -14.5 -21.5 -27.5 l38 0 q9 13 13 25 q10 -7 23 -14 q-23 -24 -42.5 -48.5 q-19.5 -24.5 -29.5 -37.5 q14 2 46 6 q-3 11 -8 25 q11 2 20 4 q3 -13 7.5 -29 q4.5 -16 6.5 -27 q-9 -2 -21 -5 q-1 10 -2 17 q-55 -8 -70 -16 q-5 12 -11 25 q16 4 28 18.5 q12 14.5 30 42.5 q-32 -1 -43 -7 q-6 11 -13 20 q19 14 30.5 30 q11.5 16 16.5 31 q5 -5 25 -12 ZM189 199 q-7 -8 -12.5 -18 q-5.5 -10 -10.5 -20 l32 0 q28 0 43 1 l0 -19 q-15 1 -44 1 l-136 0 q-28 0 -48 -1 l0 19 q20 -1 48 -1 l85 0 q6 12 9.5 23.5 q3.5 11.5 7.5 25.5 q9 -5 26 -11 ZM93 206 q11 -16 18 -30 q-11 -5 -18 -11 q-7 12 -20 30 q10 6 20 11 Z" /><glyph glyph-name="" unicode="&#x5185;" d="M57 52 q30 21 44.5 43 q14.5 22 15.5 55 l-68 0 l0 -170 l-23 0 q2 20 2 34 l0 111 q0 20 -1 42 l91 0 q0 27 -1 40 q16 -1 25 -1 q-5 -13 -5 -39 l94 0 q-2 -21 -2 -42 l0 -122 q0 -15 -12 -18.5 q-12 -3.5 -33 -6.5 q-3 10 -14 22 q24 0 31 1.5 q7 1.5 7 9.5 l0 139 l-72 0 q0 -18 -3 -35 q9 -7 32 -24.5 q23 -17.5 33 -27.5 q-11 -9 -17 -16 q-17 20 -54 50 q-18 -31 -47 -58 q-12 10 -23 13 Z" /><glyph glyph-name="" unicode="&#x5206;" d="M40 -26 q-7 11 -17 17 q16 6 29 14.5 q13 8.5 23 21 q10 12.5 15 27.5 q5 15 7 37 q-23 0 -37 -1 l0 21 q16 -1 41 -1 l100 0 q-2 -15 -3 -26 l-8 -74 q-2 -18 -16 -24 q-14 -6 -31 -7 q-1 10 -10 23 q21 -1 28.5 1.5 q7.5 2.5 9.5 17.5 l7 70 l-60 0 q-3 -26 -8.5 -43.5 q-5.5 -17.5 -15.5 -30.5 q-10 -13 -24 -24 q-14 -11 -30 -19 ZM158 207 q7 -21 28.5 -48 q21.5 -27 60.5 -47 q-8 -7 -16 -21 q-18 13 -31.5 24.5 q-13.5 11.5 -22.5 21.5 q-9 10 -20 28.5 q-11 18.5 -18 34.5 q11 3 19 7 ZM108 193 q-9 -16 -15 -28 q-6 -12 -12 -21.5 q-6 -9.5 -18 -25.5 q-12 -16 -29 -33 q-9 9 -18 14 q20 18 31.5 33 q11.5 15 22 32.5 q10.5 17.5 18.5 38.5 q8 -6 20 -10 Z" /><glyph glyph-name="" unicode="&#x52a1;" d="M114 198 q-8 -7 -14 -16 l111 0 q-9 -15 -23.5 -32 q-14.5 -17 -36.5 -32 q14 -9 38 -13.5 q24 -4.5 57 -5.5 q-8 -9 -11 -21 q-28 2 -55 10 q-27 8 -45 19 q-32 -15 -58 -22 q-26 -7 -51 -11 q-4 12 -12 21 q22 0 50 6 q28 6 55 17 q-21 20 -36 41 q-17 -21 -35 -35 q-7 8 -18 12 q28 20 41 38.5 q13 18.5 19 34.5 q13 -7 24 -11 ZM112 66 q2 12 2 28 q12 -2 24 -3 q-3 -6 -6 -25 l81 0 q-1 -12 -2 -27.5 q-1 -15.5 -3.5 -33.5 q-2.5 -18 -14.5 -21 q-12 -3 -38 -6 q-2 13 -10 22 q29 0 35 2 q6 2 8 11 l3 38 l-61 0 q-14 -43 -39.5 -56 q-25.5 -13 -54.5 -23 q-3 9 -14 21 q24 2 50 15 q26 13 37 43 l-23 0 q-30 0 -44 -2 l0 18 q15 -1 45 -1 l25 0 ZM136 129 q20 12 39 38 l-75 0 q19 -25 36 -38 Z" /><glyph glyph-name="" unicode="&#x534e;" d="M158 207 q-2 -12 -2 -29 l0 -24 q15 7 28.5 15 q13.5 8 29.5 23 q6 -8 17 -19 q-13 -5 -35 -17 q-22 -12 -40 -21 l0 -26 q0 -13 14 -13 l35 0 q13 0 15 6 q2 6 4 20 q12 -7 23 -10 q-5 -19 -11 -26 q-6 -7 -17 -7 l-61 0 q-21 0 -22 21 l0 27 q-21 -10 -32 -14 q-3 9 -11 17 q19 4 43 15 l0 31 q0 19 -1 31 l23 0 ZM115 49 q0 17 -1 28 l21 0 q-1 -9 -1 -28 l72 0 q15 0 35 1 l0 -20 q-19 1 -34 1 l-73 0 q0 -41 1 -54 l-21 0 q1 14 1 54 l-73 0 q-13 0 -29 -1 l0 20 q16 -1 30 -1 l72 0 ZM97 197 q-7 -6 -11 -13 q-4 -7 -10 -15 l0 -65 q0 -16 1 -34 l-22 0 q1 19 1 34 l0 43 q-4 -7 -12 -15.5 q-8 -8.5 -16 -17.5 q-9 9 -17 15 q14 10 25.5 23 q11.5 13 18.5 22.5 q7 9.5 11.5 19 q4.5 9.5 6.5 15.5 q10 -6 24 -12 Z" /><glyph glyph-name="" unicode="&#x53ca;" d="M206 192 q-6 -11 -15.5 -30.5 q-9.5 -19.5 -19.5 -36.5 l48 0 q-14 -41 -25.5 -60.5 q-11.5 -19.5 -23.5 -33.5 q11 -8 32.5 -17 q21.5 -9 43.5 -14 q-11 -12 -14 -21 q-37 12 -76 39 q-21 -16 -42.5 -24.5 q-21.5 -8.5 -46.5 -15.5 q-2 5 -12 17 q57 12 86 35 q-14 15 -27 33.5 q-13 18.5 -23 36.5 q-4 -17 -10 -32.5 q-6 -15.5 -13.5 -29 q-7.5 -13.5 -16.5 -25 q-9 -11.5 -26 -29.5 q-5 7 -15 17 q25 19 40 45 q15 26 21 49.5 q6 23.5 8.5 45 q2.5 21.5 2.5 35.5 l-12 0 q-15 0 -33 -1 l0 18 q18 -1 33 -1 l136 0 ZM96 125 q9 -18 28 -45 q19 -27 31 -37 q9 9 19 25.5 q10 16.5 19 40.5 l-52 0 q7 11 15 26.5 q8 15.5 19 40.5 l-74 0 q-1 -16 -5 -51 Z" /><glyph glyph-name="" unicode="&#x53d1;" d="M139 197 q-5 -11 -8 -22.5 q-3 -11.5 -8 -31.5 l80 0 q10 0 30 1 l0 -19 q-20 1 -30 1 l-84 0 q-6 -15 -13 -30 l106 0 q-19 -46 -53 -77 q27 -19 79 -25 q-7 -8 -12 -20 q-20 4 -41 11.5 q-21 7.5 -41 21.5 q-16 -10 -39 -19.5 q-23 -9.5 -47 -15.5 q-2 10 -10 19 q22 3 44 10.5 q22 7.5 39 18.5 q-17 17 -38 49 q-11 -18 -28 -35 q-17 -17 -37 -31 q-4 7 -16 15 q15 8 29.5 21 q14.5 13 30.5 34.5 q16 21.5 27 52.5 q-26 0 -40 -1 q-14 -1 -21 -4 q-3 9 -8 19 q10 2 14.5 15 q4.5 13 9.5 40 q8 -4 22 -8 q-5 -10 -9 -20.5 q-4 -10.5 -9 -23.5 l46 0 q8 32 12 61 q11 -6 23 -7 ZM107 80 q14 -25 39 -50 q22 18 39 50 l-78 0 ZM176 203 q17 -19 34 -39 q-7 -4 -17 -13 q-16 23 -31 39 q7 5 14 13 Z" /><glyph glyph-name="" unicode="&#x53f8;" d="M166 101 q-1 -14 -1 -30 l0 -22 q0 -16 1 -33 l-22 0 l0 13 l-82 0 l0 -27 l-22 0 q2 18 2 32 l0 37 q0 13 -2 30 l126 0 ZM230 196 q-1 -22 -1 -39 l0 -156 q-1 -13 -13.5 -17.5 q-12.5 -4.5 -36.5 -7.5 q0 9 -10 24 q26 0 32 2 q6 2 6 15 l0 162 l-138 0 q-18 0 -39 -1 l0 19 q21 -1 38 -1 l162 0 ZM144 45 l0 40 l-82 0 l0 -40 l82 0 ZM148 148 q13 0 35 1 l0 -20 q-21 1 -34 1 l-93 0 q-19 0 -39 -1 l0 20 q20 -1 39 -1 l92 0 Z" /><glyph glyph-name="" unicode="&#x544a;" d="M188 -23 l0 18 l-119 0 l0 -17 l-22 0 q1 15 1 46 q0 32 -1 50 l163 0 q-1 -12 -1 -42 q0 -29 1 -55 l-22 0 ZM219 148 q-8 1 -24 1 l-52 0 l0 -37 l73 0 q16 0 26 1 l0 -18 q-9 1 -25 1 l-173 0 q-11 0 -30 -1 l0 18 q22 -1 32 -1 l76 0 l0 37 l-61 0 q-9 -17 -14 -25 q-8 5 -20 9 q24 33 35 67 l22 -11 q-3 -1 -15 -24 l53 0 l0 16 q0 20 -1 26 l23 0 q-1 -6 -1 -24 l0 -18 l47 0 q21 0 29 1 l0 -18 ZM188 12 l0 45 l-119 0 l0 -45 l119 0 Z" /><glyph glyph-name="" unicode="&#x548c;" d="M235 168 q-1 -20 -1 -37 l0 -103 q0 -18 1 -29 l-20 0 l0 24 l-48 0 l0 -26 l-19 0 q1 23 1 28 l0 106 q0 17 -1 37 l87 0 ZM131 178 q-9 0 -41 -5 l0 -45 l15 0 q15 0 32 1 l0 -18 q-17 1 -31 1 l-16 0 l0 -103 q0 -17 1 -31 l-20 0 q1 16 1 31 l0 65 q-15 -28 -45 -64 q-5 7 -16 14 q22 21 38.5 48.5 q16.5 27.5 18.5 39.5 l-18 0 q-22 0 -32 -1 l0 18 q11 -1 32 -1 l22 0 l0 42 q-13 -2 -41 -5 q-2 10 -6 18 q19 1 48 5 q29 4 49 12 q2 -11 9 -22 ZM215 39 l0 112 l-48 0 l0 -112 l48 0 ZM123 40 q-13 25 -30 44 q6 4 15 12 q19 -21 32 -43 q-10 -6 -17 -13 Z" /><glyph glyph-name="" unicode="&#x56fd;" d="M231 199 q-1 -25 -1 -56 l0 -107 q0 -31 1 -61 l-20 0 l0 14 l-166 0 l0 -15 l-20 0 q1 31 1 64 l0 105 q0 30 -1 56 l206 0 ZM211 4 l0 180 l-166 0 l0 -180 l166 0 ZM159 157 q15 0 32 1 l0 -18 q-15 1 -32 1 l-25 0 l0 -33 l18 0 q18 0 34 1 l0 -18 q-16 1 -34 1 l-18 0 l0 -45 l28 0 q18 0 34 1 l0 -18 q-15 1 -34 1 l-68 0 q-17 0 -34 -1 l0 18 q17 -1 34 -1 l22 0 l0 45 l-14 0 q-17 0 -32 -1 l0 18 q15 -1 32 -1 l14 0 l0 33 l-15 0 q-18 0 -35 -1 l0 18 q17 -1 35 -1 l58 0 ZM162 85 q5 -5 20 -21 q-10 -6 -17 -11 q-3 4 -17 21 q8 6 14 11 Z" /><glyph glyph-name="" unicode="&#x5907;" d="M204 81 q-1 -18 -1 -53 q0 -34 1 -53 l-19 0 l0 13 l-113 0 l0 -13 l-19 0 q1 19 1 53 q0 35 -1 53 l151 0 ZM21 75 q-2 9 -11 19 q25 2 54.5 8 q29.5 6 47.5 16 q-23 19 -38 34 q-12 -12 -28 -26 q-9 8 -16 11 q39 30 61 75 q10 -6 21 -10 l-8 -8 q-3 -3 -10 -12 l111 0 q-9 -17 -23.5 -33.5 q-14.5 -16.5 -34.5 -31.5 q16 -8 46.5 -13 q30.5 -5 53.5 -3 q-6 -10 -9 -21 q-36 4 -60 8.5 q-24 4.5 -49 17.5 q-28 -13 -58.5 -20 q-30.5 -7 -49.5 -11 ZM84 165 q21 -20 47 -38 q21 13 44 41 l-88 0 l-3 -3 ZM185 42 l0 24 l-48 0 l0 -24 l48 0 ZM119 42 l0 24 l-47 0 l0 -24 l47 0 ZM185 4 l0 23 l-48 0 l0 -23 l48 0 ZM119 4 l0 23 l-47 0 l0 -23 l47 0 Z" /><glyph glyph-name="" unicode="&#x5bb9;" d="M134 109 q27 -23 53.5 -35 q26.5 -12 56.5 -17 q-9 -7 -12 -19 q-19 5 -38 13 q0 -59 1 -74 l-19 0 l0 14 l-94 0 l0 -17 l-19 0 q1 13 1 77 q-19 -9 -42 -18 q-4 8 -13 17 q44 10 76.5 35.5 q32.5 25.5 39.5 45.5 q10 -6 19 -10 l-10 -12 ZM230 174 q-1 -9 -1 -19 q0 -10 1 -19 l-20 0 l0 24 l-162 0 l0 -25 l-20 0 q1 11 1 20 q0 10 -1 19 l202 0 ZM176 6 l0 35 l-94 0 l0 -35 l94 0 ZM185 56 q-30 12 -61 41 q-23 -23 -54 -41 l115 0 ZM160 149 q47 -26 62 -35 q-7 -8 -12 -16 q-34 23 -61 37 q8 8 11 14 ZM31 111 q44 18 62 37 q3 -5 13 -15 q-37 -25 -62 -36 q-5 8 -13 14 ZM106 201 q8 4 19 11 q11 -14 18 -28 q-14 -5 -20 -9 q-1 4 -17 26 Z" /><glyph glyph-name="" unicode="&#x5bc6;" d="M193 134 q-14 -9 -34.5 -24 q-20.5 -15 -47.5 -29 l50 0 q21 0 21 23 q10 -6 24 -11 q-10 -22 -17.5 -25.5 q-7.5 -3.5 -20.5 -3.5 l-53 0 q-26 -1 -28 3 q-42 -14 -64 -20 q-4 10 -13 20 q24 2 40.5 7 q16.5 5 29.5 10 l0 26 q0 10 -1 26 l23 0 q-1 -15 -1 -25 l0 -17 q15 7 36 21.5 q21 14.5 36 35.5 q6 -6 20 -17 ZM49 22 q0 11 -1 23 l22 0 q-1 -14 -1 -24 l0 -21 l54 0 l0 28 q0 10 -2 27 l23 0 q-1 -11 -1 -28 l0 -27 l56 0 l0 25 q0 10 -1 23 l22 0 q-1 -12 -1 -24 l0 -33 q0 -8 1 -19 l-21 0 l0 12 l-151 0 q1 10 1 19 l0 19 ZM215 143 l0 23 l-169 0 l0 -24 l-22 0 q1 6 1 18 q0 12 -1 23 l95 0 q-3 9 -8 19 q9 3 22 7 q4 -6 10 -26 l94 0 q-1 -13 -1 -22 q0 -8 1 -18 l-22 0 ZM66 131 q-6 -17 -17 -41 q-13 4 -22 6 q11 16 17 40 q10 -3 22 -5 ZM218 133 q13 -16 26 -35 q-11 -4 -19 -10 q-11 19 -25 34 q8 5 18 11 ZM129 126 q-14 18 -26 27 q8 5 16 12 q8 -6 27 -26 q-8 -7 -17 -13 Z" /><glyph glyph-name="" unicode="&#x5e74;" d="M14 117 q22 21 41 51 q19 30 21 43 q15 -6 28 -9 q-9 -9 -20 -29 l101 0 q22 0 45 1 l0 -17 q-21 1 -45 1 l-33 0 l0 -41 q38 0 67 1 l0 -17 q-30 1 -67 1 l0 -47 l51 0 q22 0 41 1 l0 -17 q-18 1 -41 1 l-51 0 l0 -23 q0 -23 1 -42 l-22 0 q1 19 1 40 l0 25 l-68 0 q-28 0 -53 -1 l0 17 q24 -1 47 -1 q0 39 -1 62 l75 0 l0 41 l-57 0 q-21 -32 -38 -52 q-11 9 -23 11 ZM132 55 l0 47 l-55 0 l0 -47 l55 0 Z" /><glyph glyph-name="" unicode="&#x5f81;" d="M202 186 q21 0 37 1 l0 -20 q-16 1 -37 1 l-24 0 l0 -63 l22 0 q19 0 35 1 l0 -19 q-16 1 -35 1 l-22 0 l0 -80 l26 0 q19 0 41 1 l0 -19 q-22 1 -41 1 l-89 0 q-24 0 -40 -1 l0 19 q14 -1 31 -1 l0 76 q0 15 -1 33 l22 0 q-1 -17 -1 -33 l0 -76 l31 0 l0 160 l-20 0 q-23 0 -40 -1 l0 20 q17 -1 40 -1 l65 0 ZM90 138 q-6 -9 -25 -35 l0 -85 q0 -22 1 -46 l-22 0 q1 24 1 46 l0 62 q-12 -16 -23 -28 q-5 10 -13 17 q18 17 33.5 37 q15.5 20 26.5 45 q9 -6 21 -13 ZM10 147 q17 12 31 29.5 q14 17.5 21 34.5 q11 -6 23 -12 q-9 -10 -25.5 -30.5 q-16.5 -20.5 -32.5 -37.5 q-8 8 -17 16 Z" /><glyph glyph-name="" unicode="&#x6027;" d="M138 181 q-5 -18 -7 -31 l31 0 l0 21 q0 17 -1 33 l21 0 q-1 -16 -1 -33 l0 -21 l20 0 q13 0 31 1 l0 -19 q-18 1 -31 1 l-20 0 l0 -53 l18 0 q15 0 30 1 l0 -19 q-15 1 -30 1 l-18 0 l0 -62 l27 0 q17 0 33 1 l0 -18 q-16 1 -33 1 l-77 0 q-18 0 -35 -1 l0 18 q17 -1 34 -1 l32 0 l0 62 l-17 0 q-13 0 -30 -1 l0 19 q13 -1 30 -1 l17 0 l0 53 l-35 0 q-3 -15 -16 -44 q-11 6 -18 7 q14 29 18 50 q4 21 7 40 q10 -3 20 -5 ZM68 206 q-1 -20 -1 -39 l0 -150 q0 -21 1 -42 l-21 0 q1 21 1 42 l0 150 q0 21 -1 39 l21 0 ZM39 149 q-6 -42 -11 -63 q-10 2 -18 4 q7 26 11 62 q8 -1 18 -3 ZM85 161 q8 -16 16 -41 q-9 -3 -16 -7 q-7 22 -15 41 q8 4 15 7 Z" /><glyph glyph-name="" unicode="&#x6216;" d="M137 164 q0 28 -1 45 q13 -2 22 -2 q-2 -15 -2 -43 l37 0 q15 0 40 1 l0 -18 q-25 1 -40 1 l-36 0 q1 -22 5 -50 q4 -28 11 -43 q22 36 31 68 q10 -8 20 -12 q-8 -14 -18 -33.5 q-10 -19.5 -25 -42.5 q15 -27 23.5 -34 q8.5 -7 13 2.5 q4.5 9.5 6.5 22.5 q11 -10 20 -12 q-13 -41 -32.5 -39 q-19.5 2 -43.5 45 q-25 -27 -61 -46 q-6 9 -14 15 q24 11 41.5 25 q17.5 14 24.5 23 q-5 10 -12 40 q-7 30 -9 71 l-86 0 q-18 0 -35 -1 l0 18 q17 -1 34 -1 l86 0 ZM114 124 q-1 -13 -1 -35 q0 -21 1 -38 l-81 0 q1 20 1 40 q0 20 -1 33 l81 0 ZM128 40 q-2 -8 -2 -19 q-34 -7 -52 -11.5 q-18 -4.5 -50 -14.5 q-3 9 -9 21 q11 1 40 7 q29 6 73 17 ZM95 67 l0 41 l-43 0 l0 -41 l43 0 ZM185 208 q23 -22 28 -29 q-6 -5 -14 -13 q-7 11 -27 29 q8 7 13 13 Z" /><glyph glyph-name="" unicode="&#x62a5;" d="M135 -22 l-19 0 q1 24 1 50 l0 119 q0 27 -1 49 l105 0 q0 -29 -3 -54 q-3 -12 -10.5 -16.5 q-7.5 -4.5 -36.5 -6.5 q-2 12 -6 20 q28 -1 32 4 q4 5 4 36 l-66 0 l0 -68 l94 0 q-1 -8 -9 -33.5 q-8 -25.5 -22 -48.5 q21 -22 50 -36 q-7 -7 -16 -17 q-34 23 -45 38 q-13 -18 -39 -38 q-3 8 -12 16 q22 13 37 34 q-22 35 -30 69 l-8 -1 l0 -116 ZM57 152 q0 36 -1 57 l20 0 q-1 -19 -1 -57 q16 0 33 1 l0 -19 q-22 1 -33 1 l0 -41 q16 5 32 11 q-1 -8 0 -18 q-15 -4 -32 -10 l0 -70 q0 -17 -8.5 -22.5 q-8.5 -5.5 -30.5 -8.5 q-3 12 -10 20 q18 0 24.5 2.5 q6.5 2.5 6.5 11.5 l0 61 q-33 -11 -39 -15 q-5 13 -10 22 q18 3 49 12 l0 45 q-24 0 -42 -1 l0 19 q15 -1 42 -1 ZM161 94 q10 -33 24 -50 q13 20 19 50 l-43 0 Z" /><glyph glyph-name="" unicode="&#x636e;" d="M230 191 q-1 -9 -1 -22 l0 -13 q0 -18 1 -26 l-106 0 l0 -30 l46 0 q0 9 -1 27 l19 0 q-1 -16 -1 -27 l27 0 q18 0 30 1 l0 -18 q-12 1 -29 1 l-28 0 l0 -27 l44 0 q-1 -19 -1 -25 l0 -25 q0 -16 1 -30 l-18 0 l0 14 l-66 0 l0 -15 l-18 0 q1 11 1 28 l0 29 q0 10 -1 24 l41 0 l0 27 l-47 0 q-1 -29 -7.5 -54.5 q-6.5 -25.5 -18.5 -48.5 q-9 6 -19 9 q12 16 17.5 34 q5.5 18 8.5 38.5 q3 20.5 3 42.5 l0 38 q0 16 -1 48 l124 0 ZM51 177 q0 14 -1 26 l20 0 q-1 -11 -1 -26 l0 -26 q10 0 31 1 l0 -17 q-21 1 -31 1 l0 -38 q13 7 27 16 q1 -8 5 -15 q-19 -11 -32 -19 l0 -73 q0 -19 -9.5 -23 q-9.5 -4 -28.5 -7 q-2 10 -7 21 q17 0 22 1.5 q5 1.5 5 13.5 l0 59 q-15 -8 -30 -19 q-3 8 -10 19 q20 7 40 18 l0 46 q-19 0 -37 -1 l0 17 q18 -1 37 -1 l0 26 ZM212 145 l0 31 l-88 0 l0 -31 l88 0 ZM213 6 l0 37 l-66 0 l0 -37 l66 0 Z" /><glyph glyph-name="" unicode="&#x6548;" d="M140 96 q-4 11 -12 20 q12 18 22 45 q10 27 14 51 q12 -6 26 -9 q-5 -5 -10 -15.5 q-5 -10.5 -11 -26.5 q63 0 77 1 l0 -17 q-12 1 -27 1 q-1 -29 -7 -60.5 q-6 -31.5 -19 -53.5 q3 -9 19.5 -21 q16.5 -12 34.5 -18 q-12 -7 -16 -19 q-17 9 -29 19.5 q-12 10.5 -22 23.5 q-13 -12 -26.5 -21.5 q-13.5 -9.5 -39.5 -23.5 q-5 11 -17 18 q13 2 36 15.5 q23 13.5 35 26.5 q-8 17 -12.5 35 q-4.5 18 -8.5 41 l-7 -12 ZM44 89 q17 -14 33 -26 q8 13 11 33 q10 -5 20 -8 q-9 -23 -16 -38 l28 -28 q-9 -7 -17 -15 q-7 11 -22 26 q-8 -9 -19 -20.5 q-11 -11.5 -34 -29.5 q-8 10 -18 16 q13 6 28 17 q15 11 29 31 q-14 12 -33 28 l10 14 ZM163 118 q1 -10 5.5 -30.5 q4.5 -20.5 12.5 -38.5 q10 19 14.5 50 q4.5 31 3.5 47 l-35 0 q-8 -21 -15 -32 q7 0 14 4 ZM100 168 q15 0 27 1 l0 -17 q-12 1 -26 1 l-61 0 q-16 0 -29 -1 l0 17 q13 -1 29 -1 l60 0 ZM45 146 q11 -6 20 -13 q-4 -3 -13 -17 q-10 -15 -25 -36 q-9 6 -18 11 q13 12 22.5 28 q9.5 16 13.5 27 ZM99 145 q6 -9 15 -21 q9 -12 16 -21 q-9 -5 -17 -12 q-20 29 -30 42 q8 4 16 12 ZM73 210 q8 -15 14 -31 q-9 -4 -19 -8 q-6 15 -14 32 q9 3 19 7 Z" /><glyph glyph-name="" unicode="&#x6570;" d="M181 197 q-2 -5 -5 -13.5 q-3 -8.5 -9 -30.5 l46 0 q10 0 24 1 l0 -18 q-11 1 -17 1 q0 -16 -5.5 -50.5 q-5.5 -34.5 -19.5 -59.5 q10 -12 22.5 -21.5 q12.5 -9.5 23.5 -13.5 q-12 -9 -16 -17 q-12 7 -22 16 q-10 9 -20 22 q-11 -12 -23.5 -20.5 q-12.5 -8.5 -31.5 -18.5 q-5 9 -14 14 q15 6 32 17 q17 11 26 22 q-7 14 -13.5 30 q-6.5 16 -11.5 42 q-3 -8 -10 -21 q-7 4 -17 8 q16 28 26 61 q10 33 13 57 q12 -5 22 -7 ZM84 90 q-4 -4 -9 -13 l55 0 q-6 -25 -21 -50 q16 -6 25 -11 q-5 -7 -9 -15 q-9 6 -27 12 q-20 -22 -69 -39 q-5 11 -13 15 q47 11 64 30 q-28 7 -46 12 q6 9 16 30 q-10 0 -33 -1 l0 18 q19 -1 39 -1 q4 9 6 20 q11 -4 22 -7 ZM71 158 q0 24 -1 46 l20 0 q-1 -21 -1 -46 q34 0 48 1 l0 -18 q-14 1 -48 1 q0 -29 1 -45 l-20 0 q1 14 1 35 q-5 -8 -19 -20.5 q-14 -12.5 -26 -19.5 q-5 9 -15 13 q9 3 24 14 q15 11 23 23 q-20 0 -38 -1 l0 18 q17 -1 51 -1 ZM159 127 q9 -59 25 -82 q10 23 13.5 46.5 q3.5 23.5 4.5 45.5 l-39 0 l-4 -10 ZM58 40 q12 -3 33 -8 q8 10 15 29 l-37 0 q-5 -10 -11 -21 ZM133 193 q-5 -8 -8 -15 q-3 -7 -8 -17 q-8 4 -16 6 q8 13 15 33 q10 -5 17 -7 ZM103 135 q13 -13 25 -26 q-6 -5 -13 -12 q-14 17 -23 27 q6 5 11 11 ZM37 200 q14 -14 23 -28 l-15 -9 q-7 14 -21 26 q9 6 13 11 Z" /><glyph glyph-name="" unicode="&#x65e5;" d="M215 200 q-1 -49 -1 -109 q0 -60 1 -109 l-23 0 l0 25 l-120 0 l0 -30 l-22 0 q1 46 1 108 q0 62 -1 115 l165 0 ZM192 24 l0 71 l-120 0 l0 -71 l120 0 ZM192 112 l0 70 l-120 0 l0 -70 l120 0 Z" /><glyph glyph-name="" unicode="&#x660e;" d="M231 199 q-1 -19 -1 -44 l0 -144 q1 -19 -6.5 -24.5 q-7.5 -5.5 -33.5 -9.5 q-2 11 -10 24 q17 -1 24 0.5 q7 1.5 6 10.5 l0 53 l-59 0 q-6 -52 -34 -93 q-10 9 -21 13 q39 39 36 127 l0 42 q0 24 -1 45 l100 0 ZM103 191 q-1 -21 -1 -45 l0 -72 q0 -24 1 -43 l-19 0 l0 15 l-42 0 l0 -28 l-20 0 q1 17 1 44 l0 85 q0 24 -1 44 l81 0 ZM210 140 l0 42 l-58 0 l0 -42 l58 0 ZM210 82 l0 41 l-58 0 l0 -41 l58 0 ZM84 64 l0 49 l-42 0 l0 -49 l42 0 ZM84 129 l0 45 l-42 0 l0 -45 l42 0 Z" /><glyph glyph-name="" unicode="&#x6708;" d="M210 193 q-2 -24 -2 -43 l0 -142 q0 -19 -10 -23 q-10 -4 -39 -6 q-2 12 -9 23 q22 -1 30.5 0 q8.5 1 8.5 14 l0 48 l-115 0 q-5 -33 -16 -55 q-11 -22 -22 -32 q-8 7 -20 10 q16 14 25.5 33.5 q9.5 19.5 12 38.5 q2.5 19 2.5 42 l0 44 q0 22 -1 48 l155 0 ZM189 136 l0 42 l-114 0 l0 -42 l114 0 ZM189 80 l0 41 l-114 0 l0 -41 l114 0 Z" /><glyph glyph-name="" unicode="&#x6709;" d="M11 65 q23 14 45 36.5 q22 22.5 40 55.5 l-36 0 q-14 0 -35 -1 l0 19 q26 -1 39 -1 l38 0 q8 24 9 35 q15 -4 24 -6 q-3 -3 -10 -29 l81 0 q17 0 35 1 l0 -19 q-18 1 -32 1 l-90 0 q-7 -13 -15 -26 l115 0 q-1 -25 -1 -45 l0 -81 q0 -14 -8 -20.5 q-8 -6.5 -34 -8.5 q-1 11 -7 24 q15 -2 22 -1 q7 1 7 11 l0 20 l-104 0 l0 -53 l-22 0 q1 25 1 43 l0 71 q-21 -24 -44 -42 q-4 7 -18 16 ZM198 87 l0 28 l-104 0 l0 -28 l104 0 ZM198 46 l0 25 l-104 0 l0 -25 l104 0 Z" /><glyph glyph-name="" unicode="&#x671f;" d="M196 -1 q23 -3 21 8 l0 56 l-44 0 q-2 -24 -11 -46 q-9 -22 -26 -41 q-7 9 -19 13 q17 17 25.5 36 q8.5 19 10 38 q1.5 19 1.5 62 q0 44 -1 70 l85 0 q-1 -19 -1 -46 l0 -147 q0 -14 -9 -19 q-9 -5 -24 -7 q0 11 -8 23 ZM38 172 q0 15 -1 33 l21 0 q-1 -20 -1 -33 l45 0 q0 19 -1 33 l22 0 q-1 -17 -1 -33 q7 0 18 1 l0 -17 q-10 1 -18 1 l0 -95 q8 0 18 1 l0 -17 q-19 1 -37 1 l-54 0 q-22 0 -38 -1 l0 17 q15 -1 27 -1 l0 95 q-9 0 -21 -1 l0 17 q11 -1 21 -1 ZM217 135 l0 45 l-43 0 l0 -45 l43 0 ZM217 78 l0 42 l-43 0 l0 -42 l43 0 ZM64 29 q-7 -3 -17.5 -17.5 q-10.5 -14.5 -20.5 -25.5 q-10 7 -17 11 q9 7 19 19.5 q10 12.5 16 24.5 l20 -12 ZM102 135 l0 22 l-45 0 l0 -22 l45 0 ZM102 62 l0 22 l-45 0 l0 -22 l45 0 ZM102 99 l0 21 l-45 0 l0 -21 l45 0 ZM114 -3 q-16 24 -25 32 q6 4 13 12 q12 -12 28 -30 q-8 -6 -16 -14 Z" /><glyph glyph-name="" unicode="&#x673a;" d="M204 191 q-1 -28 -1 -48 l0 -130 q0 -13 6 -14 q6 -1 10 -0.5 q4 0.5 5.5 7 q1.5 6.5 1.5 19.5 q9 -5 21 -8 q-4 -21 -8 -28 q-4 -7 -13 -7 l-21 0 q-12 0 -17.5 5.5 q-5.5 5.5 -4.5 22.5 l0 164 l-38 0 q0 -57 -1.5 -88.5 q-1.5 -31.5 -9 -57 q-7.5 -25.5 -29.5 -51.5 q-5 6 -18 16 q14 11 22.5 27 q8.5 16 11.5 33 q3 17 4 36 q1 19 1 48 q0 30 -1 54 l79 0 ZM86 109 q16 -22 24 -34 q-7 -6 -17 -13 q-6 13 -21 35 l0 -73 q0 -20 1 -45 l-22 0 q1 25 1 45 l0 64 q-5 -15 -11 -28.5 q-6 -13.5 -17 -30.5 q-9 10 -16 16 q8 9 21 35 q13 26 20 58 l-6 0 q-14 0 -28 -2 l0 19 q14 -1 27 -1 l10 0 l0 20 q0 16 -1 30 l23 0 q-2 -10 -2 -30 l0 -20 l11 0 q11 0 25 1 l0 -18 q-22 1 -36 1 l0 -40 q6 5 14 11 Z" /><glyph glyph-name="" unicode="&#x6784;" d="M90 65 q-8 19 -17 34 l0 -76 q0 -21 1 -43 l-21 0 q1 23 1 43 l0 72 q-11 -25 -33 -55 q-6 8 -14 16 q18 20 29.5 44.5 q11.5 24.5 13.5 39.5 q-16 0 -31 -1 l0 18 q15 -1 35 -1 l0 23 q0 15 -1 27 l21 0 q-1 -10 -1 -27 l0 -23 q13 0 28 1 l0 -18 q-15 1 -28 1 l0 -39 q8 4 16 9 q10 -18 19 -35 q-9 -4 -18 -10 ZM160 202 q-5 -7 -9.5 -17 q-4.5 -10 -8.5 -20 l99 0 q-1 -15 -2 -37 q0 -61 -4 -114 q-4 -22 -16.5 -27.5 q-12.5 -5.5 -38.5 -7.5 q-2 11 -8 23 q21 -1 32 1 q11 2 13 26 q4 56 3 119 l-85 0 q-9 -20 -20 -38 q-8 6 -17 9 q15 22 25 47 q10 25 14 44 q12 -6 23 -8 ZM178 42 q-11 -1 -31.5 -4 q-20.5 -3 -34.5 -9 q-4 12 -9 23 q6 2 14 15 q8 13 13 26.5 q5 13.5 10 32.5 q12 -5 23 -11 q-6 -6 -17.5 -28.5 q-11.5 -22.5 -18.5 -32.5 q22 1 48 3 q-4 14 -10 30 l20 6 q6 -17 11 -32 q5 -15 7 -29 q-11 -2 -21 -6 q-2 9 -4 16 Z" /><glyph glyph-name="" unicode="&#x6790;" d="M236 182 q-13 -1 -32.5 -4 q-19.5 -3 -54.5 -7 l0 -48 l67 0 q13 0 30 1 l0 -18 q-18 1 -36 1 l0 -93 q0 -18 1 -33 l-21 0 q1 16 1 34 l0 92 l-42 0 q0 -20 -3 -41.5 q-3 -21.5 -8.5 -40 q-5.5 -18.5 -23.5 -45.5 q-7 8 -23 14 q22 19 31 50.5 q9 31.5 8.5 75.5 q-0.5 44 -1.5 66 q30 2 53.5 6 q23.5 4 37.5 10 q7 -12 16 -20 ZM76 21 q0 -13 1 -42 l-21 0 q1 22 1 42 l0 69 q-10 -25 -33 -58 q-7 11 -16 17 q18 20 30.5 46.5 q12.5 26.5 16.5 41.5 q-18 0 -37 -1 l0 18 q19 -1 39 -1 l0 25 q0 13 -1 27 l22 0 q-2 -12 -2 -27 l0 -25 q16 0 35 1 l0 -18 q-19 1 -35 1 l0 -116 ZM95 110 q17 -28 22 -38 q-9 -4 -19 -10 q-6 14 -20 39 q9 4 17 9 Z" /><glyph glyph-name="" unicode="&#x67e5;" d="M118 175 q0 16 -1 31 l20 0 q-1 -14 -1 -31 l62 0 q14 0 34 1 l0 -19 q-20 1 -34 1 l-36 0 q11 -16 33 -28 q22 -12 50 -19 q-10 -8 -14 -20 q-31 11 -52.5 27 q-21.5 16 -36.5 40 l-6 0 l0 -55 l63 0 q-1 -18 -1 -40 q0 -21 1 -42 l-142 0 q1 19 1 41 q0 23 -1 41 q-13 -8 -31 -17 q-6 11 -14 18 q22 5 44 20 q22 15 35 34 l-29 0 q-18 0 -38 -1 l0 19 q20 -1 38 -1 l56 0 ZM204 0 q17 0 33 1 l0 -18 q-38 1 -53 1 l-127 0 q-18 0 -36 -1 l0 18 q19 -1 36 -1 l147 0 ZM180 37 l0 18 l-104 0 l0 -18 l104 0 ZM180 70 l0 17 l-104 0 l0 -17 l104 0 ZM118 103 l0 55 l-5 0 q-11 -17 -24 -30 q-13 -13 -31 -25 l60 0 Z" /><glyph glyph-name="" unicode="&#x6848;" d="M123 158 q-2 1 -15 -14 l89 0 q13 0 30 1 l0 -16 q-19 1 -39 1 q-12 -16 -28 -29 q30 -8 67 -19 q-3 -6 -7 -18 q-34 14 -74 26 q-20 -11 -46.5 -16.5 q-26.5 -5.5 -57.5 -6.5 q-1 8 -9 18 q25 -2 48 0.5 q23 2.5 41 9.5 q-25 5 -66 12 q15 15 21 23 l-19 0 q-8 0 -29 -1 l0 16 q18 -1 29 -1 l30 0 q11 13 18 26 l17 -12 ZM120 56 q0 6 -1 15 l19 0 q-1 -8 -1 -15 l60 0 q18 0 36 1 l0 -16 q-18 1 -36 1 l-43 0 q17 -17 40.5 -28 q23.5 -11 50.5 -16 q-7 -5 -13 -18 q-34 10 -58 26 q-24 16 -37 34 l0 -34 q0 -12 1 -31 l-19 0 q1 19 1 33 l0 29 q-15 -16 -36 -30 q-21 -14 -58 -29 q-6 10 -13 17 q26 5 49 17 q23 12 40 30 l-45 0 q-12 0 -31 -1 l0 16 q19 -1 31 -1 l63 0 ZM125 211 q11 -17 15 -27 l84 0 q-1 -6 -1 -14 q0 -7 1 -16 l-19 0 l0 17 l-153 0 l0 -18 l-19 0 q1 8 1 16 q0 9 -1 15 l87 0 q-6 11 -12 18 q13 5 17 9 ZM84 115 q31 -5 57 -9 q13 7 26 24 l-70 0 q-6 -7 -13 -15 Z" /><glyph glyph-name="" unicode="&#x6b64;" d="M134 12 q-38 -8 -53 -12.5 q-15 -4.5 -31.5 -9 q-16.5 -4.5 -23.5 -9.5 q-5 12 -10 23 q9 1 16 3 l0 109 q0 13 -2 29 l21 0 q-1 -16 -1 -30 l0 -105 q14 3 29 7 l0 150 q0 14 -1 31 l21 0 q-1 -17 -1 -31 l0 -43 q27 0 37 2 l0 -21 q-13 1 -37 1 l0 -84 q18 4 36 9 l0 -19 ZM168 203 q-1 -15 -1 -34 l0 -57 q15 8 31.5 20 q16.5 12 26.5 23 q8 -11 16 -21 q-51 -29 -74 -43 l0 -75 q-1 -15 15 -14 l22 0 q4 0 8 3.5 q4 3.5 8 25.5 q10 -7 23 -11 q-7 -25 -15.5 -31 q-8.5 -6 -20.5 -6 l-30 0 q-32 -2 -30 26 l0 160 q0 17 -1 34 l22 0 Z" /><glyph glyph-name="" unicode="&#x6c11;" d="M138 127 q1 -19 4 -35 l51 0 q14 0 33 1 l0 -19 q-17 1 -33 1 l-48 0 q10 -39 32.5 -58 q22.5 -19 30.5 -17.5 q8 1.5 10.5 10 q2.5 8.5 2.5 16.5 q10 -7 23 -11 q-8 -22 -15 -30 q-7 -8 -23 -6 q-16 2 -29.5 12 q-13.5 10 -23 22.5 q-9.5 12.5 -16.5 27.5 q-7 15 -11 34 l-70 0 l0 -66 q25 12 47 25 q1 -12 5 -20 q-21 -9 -38.5 -18.5 q-17.5 -9.5 -31.5 -18.5 q-6 9 -13 17 q12 8 11 32 l0 125 q0 23 -1 44 l176 0 q-1 -18 -1 -33 q0 -14 1 -35 l-73 0 ZM190 143 l0 36 l-134 0 l0 -36 l134 0 ZM123 92 q-3 20 -4 35 l-63 0 l0 -35 l67 0 Z" /><glyph glyph-name="" unicode="&#x7167;" d="M101 196 q-1 -36 -1 -78 q0 -41 1 -71 l-74 0 q1 29 1 71 q0 42 -1 78 l74 0 ZM227 106 q-1 -12 -1 -30 q0 -17 1 -33 l-100 0 q1 17 1 33 q0 16 -1 30 l100 0 ZM185 111 q-1 10 -9 20 q15 0 21 1 q6 1 7 9 l3 43 l-36 0 q-4 -29 -16.5 -47 q-12.5 -18 -30.5 -31 q-10 10 -17 13 q18 10 30 26 q12 16 14 39 q-18 0 -36 -1 l0 17 q16 -1 32 -1 l82 0 q-2 -12 -3.5 -37.5 q-1.5 -25.5 -4.5 -35 q-3 -9.5 -11.5 -11.5 q-8.5 -2 -24.5 -4 ZM207 59 l0 33 l-60 0 l0 -33 l60 0 ZM81 128 l0 52 l-34 0 l0 -52 l34 0 ZM81 63 l0 50 l-34 0 l0 -50 l34 0 ZM55 25 q-14 -35 -23 -51 q-9 6 -19 8 q10 14 22 51 q9 -5 20 -8 ZM223 -25 q-7 17 -25 51 q6 3 17 8 q18 -34 26 -50 q-10 -4 -18 -9 ZM102 29 q10 -36 12 -48 q-10 0 -19 -4 q-2 11 -13 47 q9 2 20 5 ZM177 -17 q-10 -2 -20 -5 q-4 17 -14 46 q6 2 19 6 q11 -33 15 -47 Z" /><glyph glyph-name="" unicode="&#x7279;" d="M162 126 l0 36 l-15 0 q-16 0 -28 -1 l0 18 q11 -1 28 -1 l15 0 q0 20 -2 30 l21 0 q-1 -10 -1 -30 l23 0 q15 0 29 1 l0 -18 q-10 1 -29 1 l-23 0 l0 -36 l38 0 q15 0 28 1 l0 -18 q-12 1 -26 1 l-9 0 l0 -30 q22 0 33 1 l0 -19 q-12 1 -33 1 l0 -66 q-1 -12 -9 -16.5 q-8 -4.5 -31 -7.5 q-2 12 -8 23 q18 -1 24 0 q6 1 6 10 l0 57 l-49 0 q-17 0 -30 -1 l0 19 q11 -1 30 -1 l49 0 l0 30 l-50 0 q-18 0 -32 -1 l0 18 q14 -1 31 -1 l20 0 ZM46 171 q-4 -6 -8 -27 l22 0 l0 33 q0 15 -1 31 l21 0 q-2 -15 -2 -31 l0 -33 q14 0 26 1 l0 -18 q-11 1 -26 1 l0 -45 q13 5 25 10 q1 -8 3 -17 q-11 -4 -28 -11 l0 -56 q0 -16 1 -35 l-20 0 q1 18 1 35 l0 49 q-26 -10 -38 -17 q-4 10 -11 21 q13 1 49 15 l0 51 l-26 0 q-4 -17 -7 -30 q-10 4 -18 6 q5 14 9.5 35.5 q4.5 21.5 5.5 36.5 q12 -3 22 -5 ZM144 48 q8 -18 15 -35 q-9 -2 -19 -7 q-7 21 -15 35 q10 3 19 7 Z" /><glyph glyph-name="" unicode="&#x7528;" d="M14 -12 q12 17 18.5 36 q6.5 19 8 38 q1.5 19 1.5 64 q0 45 -1 72 l179 0 q-1 -29 -1 -52 l0 -131 q0 -21 -12 -26 q-12 -5 -28 -7 q-2 15 -7 23 q20 -1 23.5 1.5 q3.5 2.5 3.5 9.5 l0 50 l-61 0 l0 -39 q0 -22 1 -40 l-22 0 q1 17 1 39 l0 40 l-57 0 q-4 -43 -27 -87 q-11 7 -20 9 ZM199 139 l0 43 l-61 0 l0 -43 l61 0 ZM199 82 l0 42 l-61 0 l0 -42 l61 0 ZM118 139 l0 43 l-57 0 l0 -43 l57 0 ZM118 82 l0 42 l-57 0 l0 -42 l57 0 Z" /><glyph glyph-name="" unicode="&#x7531;" d="M119 180 q0 12 -1 26 l20 0 q-1 -13 -1 -26 l0 -28 l89 0 q-1 -18 -1 -33 l0 -101 q0 -16 1 -40 l-20 0 l0 16 l-158 0 l0 -17 l-20 0 q1 23 1 38 l0 106 q0 14 -1 31 l91 0 l0 28 ZM119 10 l0 56 l-71 0 l0 -56 l71 0 ZM119 82 l0 54 l-71 0 l0 -54 l71 0 ZM205 10 l0 56 l-68 0 l0 -56 l68 0 ZM205 82 l0 54 l-68 0 l0 -54 l68 0 Z" /><glyph glyph-name="" unicode="&#x767b;" d="M197 94 q-1 -15 -1 -31 q0 -16 1 -29 l-32 0 q9 -5 21 -9 q-4 -5 -7.5 -10.5 q-3.5 -5.5 -8.5 -15.5 l27 0 q23 0 39 1 l0 -19 q-27 1 -52 1 l-119 0 q-24 0 -41 -1 l0 19 q20 -1 41 -1 l22 0 q-4 11 -12 24 q11 4 20 9 q8 -16 14 -32 l41 0 q4 9 7 18 q3 9 5 16 l-99 0 q1 16 1 31 q0 15 -1 29 l134 0 ZM42 163 q17 -16 28 -26 q14 17 24 42 l-36 0 q-12 0 -30 -1 l0 18 q17 -1 30 -1 l61 0 q-5 -17 -13 -34 q-8 -17 -19 -31 l82 0 q-12 15 -20.5 34.5 q-8.5 19.5 -13.5 36.5 q8 1 19 5 q2 -13 7 -24 q20 14 31 29 l16 -16 q-8 -4 -17.5 -10 q-9.5 -6 -23.5 -16 q5 -13 14 -24 q21 14 37 33 q7 -11 15 -18 q-9 -4 -19.5 -11 q-10.5 -7 -23.5 -16 q12 -10 27 -16.5 q15 -6.5 29 -7.5 q-8 -11 -11 -22 q-20 6 -33.5 14.5 q-13.5 8.5 -22.5 17.5 l0 -7 q-8 1 -30 1 l-37 0 q-22 0 -32 -1 l0 8 q-12 -12 -24.5 -21.5 q-12.5 -9.5 -29.5 -20.5 q-5 9 -15 17 q16 7 25 12.5 q9 5.5 19 14.5 q-13 16 -27 27 q8 6 14 14 ZM176 50 l0 28 l-91 0 l0 -28 l91 0 Z" /><glyph glyph-name="" unicode="&#x7801;" d="M79 190 q14 0 30 1 l0 -17 q-17 1 -25 1 l-15 0 q-4 -24 -13 -53 l48 0 q-1 -17 -1 -30 l0 -48 q0 -13 1 -38 l-18 0 l0 18 l-30 0 l0 -29 l-19 0 q1 25 1 40 l0 47 q-7 -13 -16 -29 q-6 8 -14 14 q18 24 29 55.5 q11 31.5 13 52.5 q-18 0 -36 -1 l0 17 q18 -1 31 -1 l34 0 ZM189 97 l10 83 l-46 0 q-17 0 -35 -1 l0 18 q18 -2 35 -2 l67 0 q-5 -27 -13 -98 l32 0 q-2 -11 -3.5 -37 q-1.5 -26 -5.5 -48 q-4 -22 -13.5 -28.5 q-9.5 -6.5 -37.5 -8.5 q-1 11 -8 22 q26 -1 33 2 q7 3 10 29.5 q3 26.5 4 52.5 l-93 0 q3 22 5.5 43.5 q2.5 21.5 3.5 41.5 l22 -4 q-4 -10 -6.5 -27.5 q-2.5 -17.5 -4.5 -37.5 l44 0 ZM86 40 l0 66 l-30 0 l0 -66 l30 0 ZM173 53 q12 0 38 1 l0 -18 q-27 1 -45 1 l-26 0 q-11 0 -27 -1 l0 18 q11 -1 27 -1 l33 0 Z" /><glyph glyph-name="" unicode="&#x7b49;" d="M117 138 q0 7 -1 20 l22 0 q-1 -13 -1 -20 l42 0 q15 0 35 1 l0 -17 q-19 1 -34 1 l-43 0 l0 -27 l72 0 q16 0 36 1 l0 -18 q-19 1 -36 1 l-21 0 l0 -26 q25 0 42 1 l0 -18 q-20 1 -42 1 l0 -33 q1 -18 -10.5 -22.5 q-11.5 -4.5 -35.5 -7.5 q-2 12 -8 22 q17 -1 25 0 q8 1 8 14 l0 27 l-105 0 q-13 0 -34 -1 l0 18 q20 -1 38 -1 l101 0 l0 26 l-124 0 q-13 0 -35 -1 l0 18 q22 -1 35 -1 l74 0 l0 27 l-40 0 q-14 0 -35 -1 l0 17 q27 -1 35 -1 l40 0 ZM73 204 q-6 -4 -13 -15 l36 0 q21 0 35 1 l0 -16 q-11 1 -28 1 l-12 0 q5 -8 12 -21 q-12 -4 -22 -7 q0 2 -10 28 l-18 0 q-8 -12 -23 -30 q-9 7 -19 11 q14 11 23 25 q9 14 16 31 q12 -5 23 -8 ZM148 155 q-8 5 -19 8 q10 8 17 20 q7 12 13 27 q11 -4 23 -8 q-8 -7 -12 -14 l41 0 q7 0 34 1 l0 -16 q-19 1 -37 1 q11 -18 16 -25 q-14 -3 -23 -6 q-2 9 -13 31 l-26 0 q-5 -8 -14 -19 ZM103 3 q-9 -5 -18 -11 q-9 17 -24 33 q7 4 16 11 q15 -16 26 -33 Z" /><glyph glyph-name="" unicode="&#x7ea7;" d="M214 190 q-9 -33 -18 -71 l35 0 q-5 -26 -12.5 -49 q-7.5 -23 -22.5 -47 q10 -10 22.5 -18.5 q12.5 -8.5 27.5 -14.5 q-11 -9 -14 -18 q-25 14 -48 38 q-7 -7 -21.5 -17.5 q-14.5 -10.5 -37.5 -20.5 q-5 8 -14 14 q21 7 36 17 q15 10 26 21 q-12 14 -33 54 q-3 -22 -15 -46 q-11 -25 -40 -51 q-6 5 -17 11 q20 14 33 33.5 q13 19.5 18.5 42 q5.5 22.5 6.5 49 q1 26.5 1 57.5 q-11 0 -26 -1 l0 18 q18 -1 48 -1 l65 0 ZM76 194 q-6 -8 -15.5 -25.5 q-9.5 -17.5 -24.5 -38.5 l35 2 q10 16 16 33 q5 -4 18 -12 q-6 -10 -18 -29 q-12 -19 -39 -55 q30 4 48 7 q-3 -12 -3 -18 q-10 -1 -30.5 -4 q-20.5 -3 -39.5 -8 q-3 10 -7 18 q9 5 21 17.5 q12 12.5 25 34.5 q-11 -1 -21.5 -2 q-10.5 -1 -20.5 -5 q-3 9 -8 21 q13 8 25.5 31 q12.5 23 18.5 44 q7 -5 20 -11 ZM143 125 q0 -7 0 -14 q7 -18 21 -41 q14 -24 20 -31 q17 26 25 64 l-36 0 q10 33 17 71 l-46 0 q0 -24 -1 -49 ZM95 40 q-3 -10 -2 -18 q-20 -5 -36 -9.5 q-16 -4.5 -35 -10.5 q-3 10 -9 19 q14 3 31.5 6.5 q17.5 3.5 50.5 12.5 Z" /><glyph glyph-name="" unicode="&#x7ecf;" d="M81 190 q-6 -8 -15 -23 q-9 -15 -29 -45 q7 0 39 2 q11 16 19 33 q8 -8 19 -12 q-10 -12 -24 -31 q-14 -19 -42 -53 q39 5 56 9 q-1 -6 -1 -17 q-9 -2 -33 -5 q-24 -3 -45 -8 q-1 7 -7 18 q11 5 22.5 18 q11.5 13 24.5 32 q-11 0 -23.5 -1.5 q-12.5 -1.5 -20.5 -3.5 q-2 7 -8 18 q11 7 25 31 q14 24 23 49 q7 -6 20 -11 ZM197 75 q16 0 30 1 l0 -18 q-13 1 -29 1 l-16 0 l0 -59 l29 0 q14 0 30 1 l0 -18 q-16 1 -30 1 l-78 0 q-13 0 -34 -1 l0 18 q21 -1 34 -1 l30 0 l0 59 l-14 0 q-17 0 -33 -1 l0 18 q16 -1 33 -1 l48 0 ZM220 186 q-5 -10 -13 -22 q-8 -12 -21 -27 q44 -29 58 -38 q-8 -8 -15 -17 q-13 13 -53 43 q-13 -12 -26.5 -21.5 q-13.5 -9.5 -36.5 -23.5 q-6 10 -14 17 q17 6 30.5 14 q13.5 8 31.5 25 q18 17 29 34 l-43 0 q-18 0 -34 -1 l0 18 q16 -1 34 -1 l73 0 ZM106 26 q0 -6 1 -17 q-18 -3 -41.5 -8 q-23.5 -5 -42.5 -10 q-5 12 -9 21 q28 3 42 5.5 q14 2.5 50 8.5 Z" /><glyph glyph-name="" unicode="&#x7f16;" d="M171 210 q4 -16 8 -30 l52 0 q-1 -12 -1 -27 q0 -15 1 -26 l-107 0 q-1 -15 -2 -25 l118 0 q-1 -16 -1 -34 l0 -69 q0 -15 -6.5 -19 q-6.5 -4 -21.5 -8 q-3 12 -9 22 q14 0 17 1.5 q3 1.5 3 10.5 l0 34 l-20 0 q0 -22 1 -42 l-18 0 q1 20 1 42 l-20 0 q0 -31 1 -43 l-18 0 q1 12 1 43 l-20 0 l0 -66 l-19 0 q2 19 2 37 l0 54 q-8 -22 -19 -41 q-7 13 -13 20 q9 12 14 24 q5 12 8 33 q3 21 3 42 q0 21 -1 37 l52 0 q-2 11 -7 24 q13 3 21 6 ZM73 195 q-6 -6 -17.5 -29 q-11.5 -23 -20.5 -40 l28 1 q6 12 12 27 q9 -7 20 -14 q-9 -9 -20.5 -27.5 q-11.5 -18.5 -31.5 -45.5 q21 2 40 5 l-2 -18 q-12 -1 -27 -3 q-15 -2 -32 -9 q-2 11 -6 21 q8 1 17 14 q9 13 23 35 q-9 0 -18 -1 q-9 -1 -20 -5 q-3 12 -7 21 q10 2 21 27.5 q11 25.5 17 50.5 q12 -7 24 -10 ZM213 141 l0 25 l-89 0 l0 -25 l89 0 ZM84 32 q-1 -11 0 -20 q-21 -5 -35.5 -10 q-14.5 -5 -32.5 -14 l-8 24 q12 1 33.5 6.5 q21.5 5.5 42.5 13.5 ZM186 54 l0 34 l-20 0 l0 -34 l20 0 ZM222 54 l0 34 l-20 0 l0 -34 l20 0 ZM150 54 l0 34 l-20 0 l0 -34 l20 0 Z" /><glyph glyph-name="" unicode="&#x8303;" d="M168 35 q-2 11 -11 21 q21 0 27.5 2 q6.5 2 7.5 11 l2 39 l-58 0 l0 -95 q2 -14 17 -13 l53 0 q7 0 10.5 4 q3.5 4 5.5 21 q11 -7 21 -10 q-6 -21 -12 -26 q-6 -5 -19 -5 l-73 0 q-23 0 -23 25 l0 71 q0 25 -1 44 l100 0 q-1 -14 -2 -37 q-1 -23 -3 -32 q-2 -9 -11.5 -13 q-9.5 -4 -30.5 -7 ZM75 176 q0 12 -1 29 l22 0 q-1 -14 -1 -29 l64 0 q0 17 -2 29 l23 0 q-1 -12 -1 -29 l36 0 q11 0 27 1 l0 -18 q-16 1 -27 1 l-36 0 q0 -13 1 -26 l-21 0 l0 26 l-64 0 l0 -27 l-21 0 q1 13 1 27 l-34 0 q-19 0 -27 -1 l0 18 q17 -1 27 -1 l34 0 ZM90 36 q-10 -12 -27.5 -32 q-17.5 -20 -25.5 -29 q-5 7 -16 15 q10 7 28.5 27 q18.5 20 27.5 33 q6 -7 13 -14 ZM29 91 q24 -14 43 -27 q-10 -7 -15 -16 q-18 15 -42 28 q7 7 14 15 ZM52 138 q18 -12 38 -30 q-8 -5 -16 -14 q-18 18 -37 30 q8 7 15 14 Z" /><glyph glyph-name="" unicode="&#x8425;" d="M215 42 q-2 -16 -2 -31 q0 -15 2 -33 l-22 0 l0 11 l-127 0 l0 -14 l-20 0 q1 15 1 33 q0 19 -1 34 l169 0 ZM194 108 q-1 -12 -1 -26 q0 -13 1 -26 l-131 0 q1 13 1 26 q0 14 -1 26 l131 0 ZM102 204 q-1 -12 -1 -22 l55 0 q0 9 -1 23 l22 0 q-1 -12 -1 -23 l27 0 q19 0 38 1 l0 -17 q-16 1 -38 1 l-27 0 q0 -6 1 -20 l-21 0 l0 20 l-55 0 l0 -20 l-21 0 q1 13 1 20 l-24 0 q-20 0 -42 -1 l0 17 q22 -1 42 -1 l24 0 q0 9 -1 22 l22 0 ZM218 96 l0 27 l-179 0 l0 -31 l-20 0 q1 9 1 20 q0 12 -1 26 l219 0 q-1 -10 -1 -21 q0 -10 1 -21 l-20 0 ZM193 4 l0 23 l-127 0 l0 -23 l127 0 ZM175 71 l0 22 l-94 0 l0 -22 l94 0 Z" /><glyph glyph-name="" unicode="&#x89c4;" d="M75 69 q24 -18 45 -36 q-8 -9 -15 -18 q-14 19 -35 35 q-7 -16 -17.5 -34.5 q-10.5 -18.5 -24.5 -36.5 q-8 10 -20 15 q13 9 23.5 24 q10.5 15 18 33.5 q7.5 18.5 8.5 38.5 l-9 0 q-15 0 -33 -1 l0 18 q18 -1 34 -1 l9 0 l0 43 q-20 0 -33 -1 l0 18 q14 -1 33 -1 q0 34 -1 47 q11 -1 24 -3 q-4 -6 -4.5 -19.5 q-0.5 -13.5 -0.5 -24.5 q22 0 31 1 l0 -18 q-12 1 -31 1 l0 -43 q27 0 36 1 l0 -18 q-9 1 -37 1 q0 -8 -1 -21 ZM187 148 q-3 -12 -5 -37 q-2 -25 -5 -44 l17 0 q-1 -10 -1 -27 l0 -28 q0 -13 6.5 -15 q6.5 -2 13.5 -1.5 q7 0.5 9.5 5.5 q2.5 5 5.5 26 q8 -7 20 -11 q-8 -27 -13.5 -32.5 q-5.5 -5.5 -18.5 -5.5 l-19 0 q-22 0 -22 23 l0 61 q-4 -15 -10.5 -27 q-6.5 -12 -22 -27 q-15.5 -15 -47.5 -33 q-6 9 -17 16 q31 13 49.5 30 q18.5 17 26 34 q7.5 17 9.5 43.5 q2 26.5 2 53.5 q13 -3 22 -4 ZM228 195 q-1 -16 -1 -64 q0 -48 1 -68 l-19 0 l0 115 l-71 0 l0 -116 l-18 0 q1 23 1 69 q0 46 -1 64 l108 0 Z" /><glyph glyph-name="" unicode="&#x89e3;" d="M77 201 q-8 -4 -12 -18 l52 0 q-5 -7 -13 -19 q-8 -12 -11 -18 l36 0 q-2 -20 -2 -40 l0 -103 q0 -12 -6.5 -15.5 q-6.5 -3.5 -20.5 -5.5 q-2 11 -6 21 q8 0 12 0.5 q4 0.5 4 9.5 l0 33 l-21 0 l0 -47 l-17 0 l0 47 l-21 0 q-1 -15 -5 -31 q-4 -16 -13 -35 q-9 5 -19 10 q10 14 15 34.5 q5 20.5 6 52.5 q1 32 0 64 q-8 -9 -13 -14 q-6 8 -14 14 q15 12 27.5 29.5 q12.5 17.5 20.5 41.5 q8 -5 21 -11 ZM173 97 q-5 -4 -7 -12 l17 0 q0 21 -1 28 l20 0 q-2 -9 -2 -28 l14 0 q15 0 24 1 l0 -18 q-13 2 -26 2 l-12 0 l0 -29 l7 0 q19 0 39 1 l0 -17 q-19 1 -39 1 l-7 0 l0 -17 q0 -14 1 -35 l-19 0 q1 21 1 35 l0 17 l-22 0 q-11 0 -28 -1 l0 17 q15 -1 28 -1 l22 0 l0 29 l-25 0 q-3 -8 -9 -20 q-7 4 -16 11 q7 8 12 21 q5 13 8 25 l20 -10 ZM196 119 q-2 11 -7 21 q11 0 17.5 1 q6.5 1 7.5 6 q1 5 3 35 l-36 0 q-6 -28 -12 -40.5 q-6 -12.5 -19 -27.5 q-6 8 -16 15 q11 8 18 20.5 q7 12.5 10 32.5 q-12 0 -29 -1 l0 17 q16 -1 29 -1 l75 0 q-3 -49 -5.5 -59 q-2.5 -10 -12.5 -14 q-10 -4 -23 -5 ZM73 146 q8 10 14 22 l-32 0 q-9 -12 -16 -22 l34 0 ZM110 62 l0 27 l-21 0 l0 -27 l21 0 ZM110 104 l0 27 l-21 0 l0 -27 l21 0 ZM72 62 l0 27 l-19 0 l-1 -27 l20 0 ZM72 104 l0 27 l-19 0 l0 -27 l19 0 Z" /><glyph glyph-name="" unicode="&#x8bc1;" d="M205 187 q20 0 37 1 l0 -19 q-17 1 -37 1 l-25 0 l0 -65 l23 0 q17 0 33 1 l0 -19 q-15 1 -33 1 l-23 0 l0 -83 l28 0 q17 0 39 1 l0 -19 q-22 1 -39 1 l-88 0 q-24 0 -40 -1 l0 19 q16 -1 31 -1 l0 78 q0 21 -1 35 l21 0 q-1 -13 -1 -35 l0 -78 l30 0 l0 165 l-18 0 q-23 0 -44 -1 l0 19 q21 -1 44 -1 l63 0 ZM34 -5 q12 12 12 25 l0 90 l-9 0 q-14 0 -28 -1 l0 19 q13 -1 28 -1 l29 0 q-1 -19 -1 -40 l0 -55 q9 11 16 21 q5 -11 12 -20 q-11 -13 -20.5 -24.5 q-9.5 -11.5 -23.5 -29.5 q-7 9 -15 16 ZM61 156 q-17 24 -29 37 q8 6 15 14 l30 -36 q-10 -7 -16 -15 Z" /><glyph glyph-name="" unicode="&#x8bc4;" d="M236 180 q-20 1 -59 1 l0 -96 l31 0 q22 0 39 1 l0 -19 q-16 1 -39 1 l-31 0 l0 -60 q0 -20 1 -35 l-22 0 q1 19 1 35 l0 60 l-34 0 q-18 0 -34 -1 l0 19 q16 -1 34 -1 l34 0 l0 96 q-43 0 -60 -1 l0 19 q17 -1 35 -1 l66 0 q18 0 38 1 l0 -19 ZM35 9 q11 7 11 17 l0 89 q-27 0 -37 -1 l0 20 q10 -1 24 -1 l33 0 q-1 -20 -1 -40 l0 -64 q11 10 26 26 q4 -6 11 -17 q-18 -16 -29.5 -26 q-11.5 -10 -22.5 -22 q-6 11 -15 19 ZM193 105 q15 32 22 57 q11 -3 24 -8 q-2 -2 -11 -21 q-9 -19 -16 -35 q-10 5 -19 7 ZM114 160 q17 -33 24 -52 q-12 -4 -20 -9 q-10 33 -22 53 q10 3 18 8 ZM44 209 q12 -10 35 -38 q-9 -6 -16 -13 q-11 16 -33 38 q6 5 14 13 Z" /><glyph glyph-name="" unicode="&#x8be2;" d="M158 200 q-8 -6 -21 -31 l103 0 q-1 -16 -1 -40 l0 -128 q0 -15 -11 -19.5 q-11 -4.5 -30 -7.5 q-2 14 -11 22 q20 1 26.5 2.5 q6.5 1.5 7.5 10.5 l0 145 l-91 0 q-12 -20 -16 -27 l78 0 q-1 -14 -1 -55 q0 -41 1 -62 l-83 0 q1 19 1 39 l0 70 q-8 -12 -16 -22 q-9 10 -19 13 q14 15 22.5 28.5 q8.5 13.5 18.5 33 q10 19.5 18 40.5 q8 -9 24 -12 ZM61 127 q-1 -19 -1 -39 l0 -71 q13 14 22 24 q3 -5 13 -16 q-13 -11 -25 -23 q-12 -12 -21 -25 q-8 11 -18 18 q10 10 10 21 l0 94 l-9 0 q-8 0 -23 -1 l0 19 q15 -1 23 -1 l29 0 ZM172 76 l0 36 l-43 0 l0 -36 l43 0 ZM172 26 l0 35 l-43 0 l0 -35 l43 0 ZM47 203 q6 -9 26 -40 q-10 -4 -21 -10 q-15 27 -25 40 q11 5 20 10 Z" /><glyph glyph-name="" unicode="&#x8bf4;" d="M215 198 q-8 -8 -26 -47 l33 0 q-1 -14 -1 -41 q0 -27 1 -37 l-33 0 l0 -64 q0 -9 9 -9 l16 0 q9 -1 12 26 q8 -7 22 -9 q-7 -35 -27 -35 l-33 0 q-17 0 -17 19 l0 72 l-22 0 q-2 -18 -5.5 -33.5 q-3.5 -15.5 -9.5 -26.5 q-6 -11 -17.5 -21.5 q-11.5 -10.5 -25.5 -19.5 q-7 6 -21 13 q23 12 32 19.5 q9 7.5 15 18 q6 10.5 9 24.5 q3 14 4 26 l-30 0 q1 26 1 47 q0 21 -1 31 l70 0 q17 43 20 58 q13 -6 25 -11 ZM64 133 q-1 -16 -1 -37 l0 -69 q12 11 27 27 q5 -6 13 -15 q-12 -11 -27 -24.5 q-15 -13.5 -22 -22.5 q-9 10 -16 16 q8 7 7 21 l0 87 q-17 0 -31 -1 l0 19 q14 -1 21 -1 l29 0 ZM203 89 l0 46 l-83 0 l0 -46 l83 0 ZM39 204 q18 -13 40 -36 q-3 -3 -14 -15 q-25 26 -39 38 q5 3 13 13 ZM118 207 q14 -20 26 -43 q-8 -4 -17 -10 q-14 31 -24 44 q7 3 15 9 Z" /><glyph glyph-name="" unicode="&#x8bf7;" d="M107 58 q0 17 -1 40 l116 0 q-1 -17 -1 -34 l0 -72 q0 -9 -6.5 -11.5 q-6.5 -2.5 -22.5 -5.5 q-2 9 -8 18 q18 0 18 6 l0 20 l-76 0 l0 -42 l-20 0 q1 20 1 39 l0 42 ZM86 126 q16 -1 68 -1 l0 19 q-38 0 -54 -1 l0 15 q16 -1 54 -1 l0 15 q-43 0 -60 -1 l0 16 q18 -1 60 -1 q0 11 -1 21 l21 0 q-1 -11 -1 -21 q47 0 63 1 l0 -16 q-16 1 -63 1 l0 -15 q44 0 57 1 l0 -15 q-15 1 -57 1 l0 -19 q57 0 72 1 l0 -16 q-13 1 -78 1 q-64 0 -81 -1 l0 16 ZM96 33 q-13 -10 -27 -22.5 q-14 -12.5 -23 -22.5 q-7 11 -14 18 q10 7 10 19 l0 85 q-15 0 -31 -1 l0 18 q13 -1 21 -1 l29 0 q-1 -16 -1 -36 l0 -65 q16 14 25 25 q4 -10 11 -17 ZM202 33 l0 19 l-76 0 l0 -19 l76 0 ZM202 66 l0 17 l-76 0 l0 -17 l76 0 ZM63 150 q-15 22 -34 39 q7 5 13 11 q23 -20 36 -37 q-9 -8 -15 -13 Z" /><glyph glyph-name="" unicode="&#x8ff0;" d="M143 156 q0 25 -1 53 l22 0 q-1 -19 -1 -53 q55 1 72 1 l0 -19 q-16 1 -72 1 l0 -92 q0 -16 1 -35 l-22 0 q1 19 1 35 l0 56 q-5 -11 -18 -30 q-13 -19 -35 -41 q-8 8 -20 13 q18 14 38 39 q20 25 29 55 q-38 0 -56 -1 l0 19 q18 -1 62 -1 ZM60 116 q-1 -20 -1 -39 l0 -51 q31 -25 87 -25 q56 0 101 6 q-7 -10 -9 -25 q-44 -2 -72.5 -1 q-28.5 1 -47.5 3 q-19 2 -31.5 5.5 q-12.5 3.5 -22.5 10.5 q-10 7 -18 0.5 q-8 -6.5 -22 -22.5 q-8 11 -16 17 q15 13 32 26 l0 77 q-13 0 -28 -1 l0 20 q16 -1 29 -1 l19 0 ZM187 117 q20 -23 49 -59 q-10 -7 -19 -15 q-23 35 -45 61 q8 5 15 13 ZM48 202 q11 -27 18 -45 q-13 -4 -23 -8 q-4 17 -16 47 q10 2 21 6 ZM197 205 q16 -16 24 -28 q-9 -6 -17 -13 q-7 13 -21 29 q6 4 14 12 Z" /><glyph glyph-name="" unicode="&#x91ca;" d="M114 190 q-14 -2 -37 -7 l0 -64 q15 0 31 1 l0 -19 q-16 1 -31 1 l0 -84 q0 -17 1 -40 l-20 0 q1 24 1 40 l0 59 q-7 -17 -15.5 -31.5 q-8.5 -14.5 -20.5 -30.5 q-7 10 -15 15 q13 15 26 36 q13 21 17 36 q-16 0 -35 -1 l0 19 q19 -1 43 -1 l0 61 q-27 -4 -37 -7 q-3 10 -9 19 q35 2 55.5 6.5 q20.5 4.5 33.5 12.5 q4 -10 12 -21 ZM228 198 q-11 -35 -37 -65 q19 -12 55 -17 q-10 -9 -12 -20 q-35 8 -57 26 q-22 -17 -51 -29 q-4 10 -14 19 q26 5 50 20 q-21 20 -29 50 l-12 0 l0 17 q17 -1 32 -1 l75 0 ZM168 81 q0 11 -1 22 l21 0 q-2 -12 -2 -22 q27 0 43 1 l0 -19 q-16 1 -43 1 l0 -26 q41 0 56 1 l0 -18 q-15 1 -56 1 q0 -29 1 -47 l-20 0 q1 15 1 47 q-39 0 -52 -1 l0 18 q13 -1 52 -1 l0 26 q-29 0 -41 -1 l0 19 q12 -1 41 -1 ZM151 182 q8 -25 25 -38 q19 21 25 38 l-50 0 ZM90 89 q21 -22 28 -29 q-8 -6 -12 -13 q-8 8 -27 28 q5 7 11 14 ZM117 166 q-6 -8 -12 -36 q-8 3 -18 4 q7 24 10 37 q9 -3 20 -5 ZM38 163 q8 -25 10 -33 q-10 -1 -19 -5 q-1 9 -9 33 q7 2 18 5 Z" /><glyph glyph-name="" unicode="&#x9605;" d="M173 161 q-8 -9 -22 -33 l30 0 q-1 -13 -1 -28 q0 -14 1 -27 l-29 0 l0 -37 q0 -14 2.5 -15.5 q2.5 -1.5 9 -1 q6.5 0.5 9.5 5.5 q3 5 6 17 q9 -6 19 -8 q-7 -23 -16 -26 q-9 -3 -25 -3 q-16 0 -19.5 4.5 q-3.5 4.5 -3.5 12.5 l0 51 l-17 0 q-3 -37 -12.5 -53.5 q-9.5 -16.5 -30.5 -29.5 q-6 11 -14 15 q23 10 31.5 29.5 q8.5 19.5 8.5 38.5 l-25 0 q2 14 2 28 q0 15 -2 27 l60 0 q6 12 19 43 q5 -3 19 -10 ZM234 191 q-2 -19 -2 -42 l0 -133 q0 -30 -14 -33.5 q-14 -3.5 -30 -5.5 q0 13 -5 22 q19 0 25 3 q6 3 6 15 l0 159 l-70 0 q-18 0 -37 -1 l0 17 q20 -1 35 -1 l92 0 ZM46 -20 l-20 0 q1 25 1 48 l0 92 q0 22 -1 42 l20 0 l0 -182 ZM162 88 l0 26 l-68 0 l0 -26 l68 0 ZM70 170 q-12 18 -24 30 l14 10 q11 -10 24 -28 q-3 -3 -14 -12 ZM101 133 q-6 15 -17 28 q10 7 14 9 l18 -28 q-9 -4 -15 -9 Z" /><glyph glyph-name="" unicode="&#x9645;" d="M100 196 q-3 -8 -10 -32 q-7 -24 -15 -48 q13 -20 17.5 -34 q4.5 -14 2 -25.5 q-2.5 -11.5 -14 -20 q-11.5 -8.5 -26.5 -10.5 q-5 16 -9 23 q22 0 26.5 7.5 q4.5 7.5 2 18 q-2.5 10.5 -7 20.5 q-4.5 10 -12.5 20 q5 14 10 31 q5 17 10 33 l-33 0 l0 -200 l-21 0 q1 28 1 55 l0 119 q0 22 -1 43 l80 0 ZM210 132 q16 0 32 1 l0 -19 q-13 1 -29 1 l-33 0 l0 -112 q0 -16 -11 -18.5 q-11 -2.5 -30 -5.5 q-1 12 -8 24 q20 0 24.5 1 q4.5 1 4.5 7 l0 104 l-25 0 q-22 0 -36 -1 l0 19 q22 -1 36 -1 l75 0 ZM199 191 q16 0 28 2 l0 -19 q-12 1 -28 1 l-53 0 q-17 0 -30 -1 l0 19 q12 -2 32 -2 l51 0 ZM86 8 q12 20 20.5 39.5 q8.5 19.5 15.5 39.5 q8 -3 21 -9 q-10 -18 -18.5 -38 q-8.5 -20 -18.5 -41 q-8 4 -20 9 ZM211 88 q25 -49 37 -74 q-10 -4 -21 -10 q-15 37 -35 73 q6 3 19 11 Z" /><glyph glyph-name="" unicode="&#x9646;" d="M160 164 l0 20 q0 9 -1 22 l22 0 q-1 -14 -1 -22 l0 -20 l23 0 q11 0 25 1 l0 -18 q-12 1 -25 1 l-23 0 l0 -36 l30 0 q17 0 33 1 l0 -18 q-14 1 -33 1 l-30 0 l0 -88 l33 1 l0 33 q0 14 -1 30 l21 0 q-1 -15 -1 -31 l0 -23 q0 -22 1 -37 l-20 0 l0 12 l-104 -5 q1 17 1 32 l0 20 q0 17 -1 32 l22 0 q-1 -16 -1 -33 l0 -33 l30 1 l0 89 l-21 0 q-24 0 -39 -1 l0 18 q24 -1 39 -1 l21 0 l0 36 l-15 0 q-15 0 -31 -1 l0 18 q16 -1 31 -1 l15 0 ZM100 192 q-8 -19 -16.5 -43.5 q-8.5 -24.5 -12.5 -37.5 q16 -18 21 -31 q5 -13 4.5 -26 q-0.5 -13 -13 -23 q-12.5 -10 -29.5 -14 q-3 12 -10 23 q20 1 27 7.5 q7 6.5 5.5 17 q-1.5 10.5 -8.5 23 q-7 12.5 -17 20.5 q7 15 12 32.5 q5 17.5 11 35.5 l-37 0 l0 -197 l-20 0 q1 21 1 43 l0 125 q0 26 -1 45 l83 0 Z" /><glyph glyph-name="" unicode="&#x9650;" d="M222 198 q-1 -18 -1 -50 q0 -31 1 -49 l-47 0 q0 -19 10 -40 q26 17 34 31 q8 -12 15 -18 q-18 -9 -44 -26 q11 -15 23 -26 q12 -11 35 -19 q-12 -6 -18 -19 q-24 15 -37.5 30.5 q-13.5 15.5 -22 36 q-8.5 20.5 -11.5 50.5 l-23 0 l0 -91 q16 8 29 19 q1 -9 4 -21 q-9 -5 -23.5 -13 q-14.5 -8 -24.5 -16 q-4 8 -11 18 q6 6 8 18 l0 141 q0 20 -1 44 l105 0 ZM100 198 q-18 -59 -25 -80 q20 -24 23 -44 q3 -20 -8.5 -33 q-11.5 -13 -28.5 -18 q-1 13 -9 23 q18 0 23 7 q5 7 4 22.5 q-1 15.5 -24 41.5 q16 45 20 65 l-30 0 l0 -202 l-19 0 q1 28 1 55 l0 117 q0 18 -1 46 l74 0 ZM203 115 l0 27 l-67 0 l0 -27 l67 0 ZM203 157 l0 25 l-67 0 l0 -25 l67 0 Z" /><glyph glyph-name="" unicode="&#x9669;" d="M93 195 q-6 -14 -12 -36 q-6 -22 -14 -45 q14 -20 18.5 -34.5 q4.5 -14.5 4.5 -27.5 q0 -13 -10 -20 q-10 -7 -24 -10 q-3 12 -9 21 q19 0 21.5 7 q2.5 7 0 21 q-2.5 14 -19.5 39 q15 47 19 69 l-28 0 l0 -205 l-19 0 q1 26 1 48 l0 128 q0 20 -1 45 l72 0 ZM169 195 q18 -31 35.5 -45.5 q17.5 -14.5 43.5 -27.5 q-10 -7 -15 -18 q-16 8 -34 23 l0 -17 q-12 1 -25 1 l-27 0 q-16 0 -30 -1 l0 11 q-11 -12 -23 -24 q-6 10 -17 16 q17 10 38 36 q21 26 33 61 q14 -6 26 -9 l-5 -6 ZM220 84 q-6 -10 -14 -33.5 q-8 -23.5 -15 -49.5 q26 0 47 1 l0 -18 q-17 1 -34 1 l-80 0 q-25 0 -40 -1 l0 18 q18 -1 41 -1 l48 0 q11 34 15.5 54.5 q4.5 20.5 5.5 35.5 q11 -4 26 -7 ZM198 128 q-20 19 -40 54 q-16 -29 -36 -54 l76 0 ZM158 90 q7 -25 13 -59 q-9 0 -19 -2 q-7 41 -12 57 q10 1 18 4 ZM118 83 q7 -26 16 -62 q-9 -1 -17 -5 q-4 23 -16 61 q9 3 17 6 Z" /><glyph glyph-name="" unicode="&#x9881;" d="M65 186 q-3 -5 -10 -27 q-7 -22 -18 -45 l72 0 q-17 44 -35 77 q10 4 16 9 q12 -22 21.5 -42.5 q9.5 -20.5 18.5 -43.5 q-8 -2 -18 -8 l-3 7 l-2 -94 q-1 -18 -10 -23 q-9 -5 -28 -8 q-4 13 -10 20 q19 1 25 3.5 q6 2.5 6 15.5 l1 72 l-25 0 q-1 -51 -9.5 -75.5 q-8.5 -24.5 -26.5 -45.5 q-7 8 -19 12 q22 20 30 45.5 q8 25.5 7 63.5 l-18 0 q-4 -5 -7 -9 q-5 6 -15 12 q15 18 24 43.5 q9 25.5 13 48.5 q11 -6 20 -8 ZM211 190 q16 0 33 1 l0 -16 q-18 1 -33 1 l-22 0 q-4 -12 -10 -32 l54 0 q-1 -14 -1 -54 q0 -39 1 -61 l-19 0 l0 101 l-63 0 l0 -99 l-18 0 q1 24 1 60 q0 37 -1 53 l29 0 q6 26 6 32 l-13 0 q-16 0 -34 -1 l0 16 q18 -1 34 -1 l56 0 ZM195 111 q-3 -13 -4.5 -31.5 q-1.5 -18.5 -5.5 -38.5 q-4 -20 -18 -35 q-14 -15 -46 -32 q-5 10 -14 16 q25 9 39.5 20.5 q14.5 11.5 19.5 26.5 q5 15 6.5 35 q1.5 20 1.5 42 q10 -3 21 -3 ZM196 31 q21 -17 49 -40 q-6 -5 -14 -15 q-26 25 -46 40 q6 6 11 15 Z" /><glyph glyph-name="" unicode="&#x98ce;" d="M204 198 q-2 -40 -1.5 -72.5 q0.5 -32.5 1 -52.5 q0.5 -20 7 -44.5 q6.5 -24.5 10.5 -22.5 q4 2 7 25 q9 -9 20 -13 q-10 -37 -20.5 -40.5 q-10.5 -3.5 -20.5 9 q-10 12.5 -15.5 36.5 q-5.5 24 -6.5 51.5 q-1 27.5 -1 105.5 l-124 0 q0 -81 -2.5 -107 q-2.5 -26 -10 -52 q-7.5 -26 -22.5 -48 q-9 10 -14 16 q13 17 20 40.5 q7 23.5 9 53 q2 29.5 2 64.5 q0 35 -1 51 l163 0 ZM169 145 q-6 -8 -14 -27 q-8 -19 -16 -34 q22 -36 35 -63 q-10 -5 -17 -10 q-7 17 -28 54 q-11 -15 -23 -28 q-12 -13 -28 -27 q-8 11 -14 15 q16 10 31 26.5 q15 16.5 23 29.5 q-20 32 -44 57 q9 6 14 12 q20 -23 40 -51 q11 21 21 58 l20 -12 Z" /></font>
</defs>
</svg>
